<?xml version="1.0" encoding="utf-8"?>
<!-- Generator: Adobe Illustrator 24.2.0, SVG Export Plug-In . SVG Version: 6.00 Build 0)  -->
<svg version="1.1" id="Layer_1" xmlns="http://www.w3.org/2000/svg" xmlns:xlink="http://www.w3.org/1999/xlink" x="0px" y="0px"
	 viewBox="0 0 240.5 124.1" style="enable-background:new 0 0 240.5 124.1;" xml:space="preserve">
<style type="text/css">
	.st0{fill:#FFFFFF;}
	.st1{fill:none;stroke:#292931;stroke-miterlimit:10;}
</style>
<g>
	<path class="st0" d="M228.6,64.6c-8.9-6.6-29.3-19.4-29.4-19.4l0,0c-15-9.6-9.3-19.6-9.2-19.8l0,0c4.3-9.3,20.3-7.8,20.6-7.8l0,0
		c3.6,0.1,11.8,0.3,11.8,0.3l3,0.1c0,0,6.7-7.6,9.5-10.7l-30.1-0.5c-37.7-1.2-41.6,32.6-35.4,45.1c6.5,15.6,28.5,26.3,28.6,26.3l0,0
		c16.4,8.3,17.5,20.6,17.5,20.6c0.5,17.8-13.6,22.1-20.5,23.1c-0.3,0-0.3,0.5,0,0.5C250,124,242.2,75.1,228.6,64.6z"/>
	<path class="st0" d="M165.2,76.8c-3.7,19.1-12.2,16.3-21.8,17.4l11.3,10.7l-1.5,15.6c14.5-11.9,21.2-4.6,30.1-0.6
		c-11.3-16.9-1.4-21.8,5.1-28l-15.9-1.5L165.2,76.8z"/>
	<g>
		<path class="st0" d="M49.1,112.5c0.5-3-4.1-3.8-4.5-0.8C44.1,114.6,48.6,115.5,49.1,112.5z"/>
		<path class="st0" d="M116.3,2L23.1,1.2l0,0C34,13.1,37.3,16.5,49.1,29c5.5,0,3.8,0,12.8,0l33.6-0.1c0,0,20.7-0.7,22.4,15.5
			c0.9,10.1-0.9,50.9-41.3,45.4l8-47.8L41.9,64.1L41.6,66l-5.2-0.7c-0.5-3.4-5.8-3-6.1,0.2c-0.5,3.3,4.5,4.8,5.9,1.8l5.2,0.7
			l-0.5,2.8l3.7,0.6l5.5-4c-1.1-2.5,1.2-5.5,4-5c5.8,1.1,2.2,9.7-2.6,6.5L45,73.3l-4.5-0.7l-0.3,1.8l-12.5-1.7l-4.9-6.5
			c2.2-2.5,0.5-6.7-2.8-7c-7.1-0.6-6,10.2,0.8,8.3l5.7,7.3l13.4,2l-0.4,2.7l2.6,0.4l4.2-3.3l11.1,0.6l-0.3,2L47,78.8L42.7,82
			l-3.5-0.6L39,82.7l-10.3-1.6l-2.8-3.7L15.1,76c-0.3-5-8.2-5.2-8.8-0.2c-0.8,4.5,6.3,6.7,8.2,2.5l9.8,1.3l2.9,3.6l11.2,1.7l-0.3,2
			l8.7,1.4c1.5-3.8,7.7-1.8,6.9,2.1c-0.4,4-6.9,3.9-7.2-0.1l-8.7-1.4l-0.2,1l-17.4-2.7l0,0c-0.4-4.9-8.2-4.8-8.6,0
			c-0.9,4.7,6.6,6.9,8.2,2.3l17.3,2.6L37,93.9l3.3,0.5L42,98l11.1,1.8l-0.3,1.9l-11.9-1.9l-1.7-3.5l-2.5-0.4L36.5,97l-10.8-1.9
			l-3.1,3.5L10.1,97c-0.6-4.6-8.1-4.3-8.5,0.3c-0.8,5,6.9,6.8,8.5,2l13.1,1.8l3.1-3.4l9.7,1.7l-0.4,2.3l5.5,0.9l4.4,6.1
			c5.7-1.9,6.5,7.8,0.6,7c-2.7-0.4-4.2-3.9-2.2-5.9l-4.1-5.4l-4.6-0.7l-0.3,1.8l-11.7-0.8l-6.1,3.3c-5.8-4.1-10.2,6.6-3.2,7.8
			c3.2,0.5,6.1-3,4.6-5.9l5.5-2.7l10.5,0.6l-0.5,2.8l2.2,0.4l0,0c1.2-2.5,5.3-1,4.8,1.7c-0.3,2.7-4.7,2.8-5.1,0l0,0l-2.2-0.4l-0.2,1
			l-3.9-0.5l0,0c-0.5-3.3-5.8-3-6,0.3c-0.5,3.2,4.4,4.9,5.8,1.7l0,0l3.8,0.5l-0.4,2.3c34.6-3.4,70.4,12.7,105.1-21
			C165.3,64.2,171.7,3.2,116.3,2z M35.1,66.1c-0.3,2.3-3.8,1.8-3.4-0.5C31.9,63.4,35.4,63.8,35.1,66.1z M21.9,63.5
			c-0.3,2.9-5.2,2.6-4.9-0.5C17.2,59.5,22.3,60.2,21.9,63.5z M13.1,76.4c-0.4,3.1-5.3,2.3-4.9-0.7C8.6,72.6,13.5,73.1,13.1,76.4z
			 M18.5,87.8c-0.4,3.1-5.4,2.3-4.9-0.7C13.9,84.1,18.9,84.6,18.5,87.8z M8.4,97.9C8,101,3,100.2,3.5,97.2
			C3.8,94.2,8.8,94.7,8.4,97.9z M17.2,111.4c-0.3,3-5.4,2.4-4.9-0.7C12.6,107.6,17.7,108.4,17.2,111.4z M28.7,113.3
			c-0.3,2.1-3.8,1.6-3.5-0.5C25.5,110.6,29,111,28.7,113.3z"/>
		<path class="st0" d="M40.2,112.4c0.3-2-2.6-2.5-2.9-0.5C37,113.7,39.9,114.3,40.2,112.4z"/>
		<path class="st0" d="M52.5,90.4c0.5-3.2-4.3-4.1-4.8-0.8C47.2,92.7,52,93.4,52.5,90.4z"/>
		<path class="st0" d="M53,67.9c2.8,0.5,3.4-3.8,0.7-4.2C50.9,63.2,50.1,67.5,53,67.9z"/>
	</g>
	<path class="st1" d="M85.9,41.2l59.5-34.9"/>
	<line class="st1" x1="86.9" y1="36.9" x2="146.5" y2="1.9"/>
	<line class="st1" x1="83.3" y1="34.9" x2="142.9" y2="0"/>
</g>
</svg>
