<?xml version="1.0" encoding="utf-8"?>
<!-- Generator: Adobe Illustrator 24.2.0, SVG Export Plug-In . SVG Version: 6.00 Build 0)  -->
<svg version="1.1" id="Layer_1" xmlns="http://www.w3.org/2000/svg" xmlns:xlink="http://www.w3.org/1999/xlink" x="0px" y="0px"
	 viewBox="0 0 249.5 187.3" style="enable-background:new 0 0 249.5 187.3;" xml:space="preserve">
<style type="text/css">
	.st0{fill:#D43193;}
	.st1{fill:url(#SVGID_1_);}
	.st2{fill:url(#SVGID_2_);}
	.st3{fill:url(#SVGID_3_);}
	.st4{font-family:'Roboto-Regular';}
	.st5{font-size:72.6583px;}
	.st6{font-family:'Roboto-Thin';}
	.st7{fill:none;stroke:#FFFFFF;stroke-miterlimit:10;}
</style>
<g>
	<g>
		<path class="st0" d="M53.3,112.9c0.5-3-4.1-3.8-4.5-0.8C48.3,115.1,52.8,116,53.3,112.9z"/>
		<linearGradient id="SVGID_1_" gradientUnits="userSpaceOnUse" x1="5.7673" y1="60.2476" x2="162.6683" y2="60.2476">
			<stop  offset="0.14" style="stop-color:#E92987"/>
			<stop  offset="1" style="stop-color:#5409A2"/>
		</linearGradient>
		<path class="st1" d="M120.5,2.5L27.3,1.7l0,0c10.9,11.9,14.2,15.3,26,27.7c5.5,0,3.8,0,12.8,0l33.6-0.1c0,0,20.7-0.7,22.4,15.5
			c0.9,10.1-0.9,50.9-41.3,45.4l7.9-47.8L46.1,64.6l-0.3,1.9l-5.2-0.7c-0.5-3.4-5.8-3-6.1,0.2c-0.5,3.3,4.5,4.8,5.9,1.8l5.2,0.7
			L45,71.2l3.7,0.6l5.5-4c-1.1-2.5,1.2-5.5,4-5c5.8,1.1,2.2,9.7-2.6,6.5l-6.3,4.5l-4.5-0.7l-0.3,1.8l-12.5-1.7L27,66.7
			c2.2-2.5,0.5-6.7-2.8-7c-7.1-0.6-6,10.2,0.8,8.3l5.7,7.3l13.4,2l-0.4,2.7l2.6,0.4l4.2-3.3l11.1,0.6l-0.3,2L51,79.2l-4.3,3.2
			l-3.5-0.6L43,83.1l-10.3-1.6l-2.8-3.7l-10.7-1.4c-0.3-5-8.2-5.2-8.8-0.2c-0.8,4.5,6.3,6.7,8.2,2.5l9.8,1.3l2.9,3.6l11.2,1.7
			l-0.3,2l8.7,1.4c1.5-3.8,7.7-1.8,6.9,2.1c-0.4,4-6.9,3.9-7.2-0.1L42,89.3l-0.2,1l-17.4-2.7c0,0,0,0,0,0c-0.4-4.9-8.2-4.8-8.6,0
			c-0.9,4.7,6.6,6.9,8.2,2.3l17.3,2.6l-0.3,1.7l3.3,0.5l1.6,3.6l11.1,1.8l-0.3,1.9L45,100.2l-1.7-3.5l-2.5-0.4l-0.2,1.1l-10.8-1.9
			l-3.1,3.5l-12.5-1.7c-0.6-4.6-8.1-4.3-8.5,0.3c-0.8,5,6.9,6.8,8.5,2l13.1,1.8l3.1-3.4l9.7,1.7l-0.4,2.3l5.5,0.9l4.4,6.1
			c5.7-1.9,6.5,7.8,0.6,7c-2.7-0.4-4.2-3.9-2.2-5.9l-4.1-5.4l-4.6-0.7l-0.3,1.8L27.6,105l-6.1,3.3c-5.8-4.1-10.2,6.6-3.2,7.8
			c3.2,0.5,6.1-3,4.6-5.9l5.5-2.7l10.5,0.6l-0.5,2.8l2.2,0.4c0,0,0,0,0,0c1.2-2.5,5.3-1,4.8,1.7c-0.3,2.7-4.7,2.8-5.1,0c0,0,0,0,0,0
			l-2.2-0.4l-0.2,1l-3.9-0.5c0,0,0,0,0,0c-0.5-3.3-5.8-3-6,0.3c-0.5,3.2,4.4,4.9,5.8,1.7c0,0,0,0,0,0l3.8,0.5l-0.4,2.3
			c34.6-3.4,70.4,12.7,105.1-21C169.5,64.6,175.9,3.7,120.5,2.5z M39.3,66.6c-0.3,2.3-3.8,1.8-3.4-0.5
			C36.1,63.8,39.6,64.3,39.3,66.6z M26.1,63.9c-0.3,2.9-5.2,2.6-4.9-0.5C21.4,60,26.5,60.6,26.1,63.9z M17.3,76.9
			c-0.4,3.1-5.3,2.3-4.9-0.7C12.8,73,17.8,73.6,17.3,76.9z M22.7,88.3c-0.4,3.1-5.4,2.3-4.9-0.7C18.1,84.5,23.2,85.1,22.7,88.3z
			 M12.6,98.3c-0.4,3.1-5.4,2.3-4.9-0.7C8,94.6,13.1,95.2,12.6,98.3z M21.4,111.8c-0.3,3-5.4,2.4-4.9-0.7
			C16.8,108,21.9,108.8,21.4,111.8z M33,113.7c-0.3,2.1-3.8,1.6-3.5-0.5C29.7,111,33.2,111.5,33,113.7z"/>
		<path class="st0" d="M44.4,112.8c0.3-2-2.6-2.5-2.9-0.5C41.2,114.2,44.1,114.7,44.4,112.8z"/>
		<path class="st0" d="M56.7,90.8c0.5-3.2-4.3-4.1-4.8-0.8C51.4,93.2,56.3,93.9,56.7,90.8z"/>
		<path class="st0" d="M57.2,68.4c2.8,0.5,3.4-3.8,0.7-4.2C55.1,63.7,54.3,67.9,57.2,68.4z"/>
	</g>
	<linearGradient id="SVGID_2_" gradientUnits="userSpaceOnUse" x1="171.2321" y1="64.9715" x2="242.6837" y2="64.9715">
		<stop  offset="0.14" style="stop-color:#E92987"/>
		<stop  offset="1" style="stop-color:#5409A2"/>
	</linearGradient>
	<path class="st2" d="M232.8,65c-8.9-6.6-29.3-19.4-29.4-19.4c0,0,0,0,0,0c-15-9.6-9.3-19.6-9.2-19.8c0,0,0,0,0,0
		c4.3-9.3,20.3-7.8,20.6-7.8c0,0,0,0,0,0c3.6,0.1,11.8,0.3,11.8,0.3l3,0.1c0,0,6.7-7.6,9.5-10.7L209,7.2
		c-37.7-1.2-41.6,32.6-35.4,45.1c6.5,15.6,28.5,26.3,28.6,26.3c0,0,0,0,0,0c16.4,8.3,17.5,20.6,17.5,20.6
		c0.5,17.8-13.6,22.1-20.5,23.1c-0.3,0-0.3,0.5,0,0.5C254.2,124.4,246.4,75.6,232.8,65z"/>
	<linearGradient id="SVGID_3_" gradientUnits="userSpaceOnUse" x1="147.6224" y1="99.0939" x2="192.6843" y2="99.0939">
		<stop  offset="0.14" style="stop-color:#E92987"/>
		<stop  offset="1" style="stop-color:#5409A2"/>
	</linearGradient>
	<path class="st3" d="M169.4,77.2c-3.7,19.1-12.2,16.3-21.8,17.4l11.3,10.7l-1.5,15.6c14.5-11.9,21.2-4.6,30.1-0.6
		c-11.3-16.9-1.4-21.8,5.1-28l-15.9-1.5L169.4,77.2z"/>
	<text transform="matrix(1 0 0 1 0 184.9306)"><tspan x="0" y="0" class="st4 st5">Dev</tspan><tspan x="121.3" y="0" class="st6 st5">Star</tspan></text>
	<line class="st7" x1="90.1" y1="41.7" x2="149.7" y2="6.7"/>
	<line class="st7" x1="91.1" y1="37.3" x2="150.7" y2="2.4"/>
	<line class="st7" x1="87.5" y1="35.4" x2="147.1" y2="0.4"/>
</g>
</svg>
