<?xml version="1.0" encoding="utf-8"?>
<!-- Generator: Adobe Illustrator 24.0.1, SVG Export Plug-In . SVG Version: 6.00 Build 0)  -->
<svg version="1.1" id="Layer_1" xmlns="http://www.w3.org/2000/svg" xmlns:xlink="http://www.w3.org/1999/xlink" x="0px" y="0px"
	 viewBox="0 0 500 500" style="enable-background:new 0 0 500 500;" xml:space="preserve">
<style type="text/css">
	.st0{fill:#FFFFFF;}
	.st1{fill:url(#SVGID_1_);}
	.st2{fill:url(#SVGID_2_);}
	.st3{fill:url(#SVGID_3_);}
	.st4{fill:url(#SVGID_4_);}
	.st5{fill:url(#SVGID_5_);}
	.st6{fill:url(#SVGID_6_);}
	.st7{display:none;fill:url(#SVGID_7_);}
	.st8{fill:url(#SVGID_8_);}
</style>
<rect x="0" class="st0" width="500" height="500"/>
<g>
	<linearGradient id="SVGID_1_" gradientUnits="userSpaceOnUse" x1="303.9572" y1="158.1375" x2="189.8551" y2="272.2396">
		<stop  offset="0.14" style="stop-color:#E92987"/>
		<stop  offset="0.4544" style="stop-color:#B11D91"/>
		<stop  offset="1" style="stop-color:#5409A2"/>
	</linearGradient>
	<path class="st1" d="M169.1,203.6c1.5,0,3-0.2,4.2-1l14.9,14.9H203c-0.4,1.3-0.8,2.6-1.1,3.8h10.7l12.7-6.9h18.4
		c0.8-1.5,1.6-2.9,2.5-4.2c3.7-5.5,8.5-9.9,14.4-13.2c5.9-3.3,13.1-4.9,21.6-4.9c9.1,0,16.9,2.4,23.3,7.2c6.4,4.8,10.7,12,12.9,21.6
		h36c-1-9.8-3.6-18.4-7.9-25.9c-4.3-7.5-9.8-13.8-16.4-18.9c-6.6-5.1-14.1-9-22.3-11.6c-8.2-2.6-16.7-4-25.5-4
		c-13.1,0-24.9,2.3-35.4,7c-10.5,4.6-19.3,11-26.5,19.2c-1.8,2-3.5,4.1-5,6.3h-7.7c-1-3-3.5-4.7-6.4-4.7c-4,0-7.2,3.2-7.2,7
		c0,4,3.2,6.9,7.2,6.9c3,0,5.5-2,6.4-4.7h4.7c-1.4,2.2-2.6,4.5-3.8,6.8h10.1l12.9-13.2c-0.8-1.5-1.5-3.2-1.5-5.2
		c0-5.5,4.5-9.9,9.9-9.9c5.2,0,9.9,4.5,9.9,9.9c0,5.5-4.7,9.7-9.9,9.7c-1.5,0-3-0.2-4.2-1l-14.9,14.9H206c-0.4,0.9-0.8,1.9-1.2,2.9
		h-14.4l-12.9-13.2c0.8-1.5,1.5-3.2,1.5-5.2c0-5.5-4.5-9.9-9.9-9.9c-5.2,0-9.9,4.5-9.9,9.9C159.1,199.4,163.8,203.6,169.1,203.6z
		 M201.1,199.1c-2.2,0-4-1.7-4-4c0-2.2,1.7-4,4-4c2,0,4,1.7,4,4C205.1,197.4,203.1,199.1,201.1,199.1z M169.1,188.2
		c3,0,5.7,2.5,5.7,5.7c0,3-2.7,5.5-5.7,5.5c-3,0-5.5-2.5-5.5-5.5C163.6,190.7,166.1,188.2,169.1,188.2z"/>
	<linearGradient id="SVGID_2_" gradientUnits="userSpaceOnUse" x1="315.581" y1="169.7613" x2="201.4789" y2="283.8633">
		<stop  offset="0.14" style="stop-color:#E92987"/>
		<stop  offset="0.4544" style="stop-color:#B11D91"/>
		<stop  offset="1" style="stop-color:#5409A2"/>
	</linearGradient>
	<path class="st2" d="M214.2,275.2c0-2.2-1.7-4-4-4c-2,0-4,1.7-4,4c0,2,2,3.7,4,3.7C212.4,278.9,214.2,277.2,214.2,275.2z"/>
	<linearGradient id="SVGID_3_" gradientUnits="userSpaceOnUse" x1="290.6172" y1="144.7975" x2="176.5152" y2="258.8996">
		<stop  offset="0.14" style="stop-color:#E92987"/>
		<stop  offset="0.4544" style="stop-color:#B11D91"/>
		<stop  offset="1" style="stop-color:#5409A2"/>
	</linearGradient>
	<path class="st3" d="M153,236.4c4.2,0,8-2.7,9.2-6.4c0.2-0.4,0.3-0.8,0.4-1.2h23.5l12.5,8.8c-0.1,0.6-0.1,1.3-0.2,1.9h12.9
		c1-4.2,4.7-7.2,9.2-7.2c5.7,0,9.9,4.5,9.9,9.9c0,5.5-4.2,9.9-9.9,9.9c-4.5,0-8.2-3-9.2-7.2h-13.3c0,0.9-0.1,1.7-0.1,2.6h-19.8
		c-1-4.2-4.7-7.2-9.2-7.2c-5.7,0-9.9,4.5-9.9,9.9c0,5.5,4.2,9.9,9.9,9.9c4.5,0,8.2-3,9.2-7.2H198c0,0.7,0.1,1.3,0.1,2h16.7
		l12.7,12.9h9.8c-1.1-5.5-1.7-11.2-1.7-17c0-7.5,0.8-14.8,2.5-21.8c0.8-3.2,1.7-6.2,2.9-9.1h-13.4l-12.9,6.7h-14.2
		c-0.4,1.6-0.7,3.2-1,4.8l-10.9-8h-26.3c-1.4-3.8-5-6.5-9.3-6.5c-5.5,0-9.9,4.5-9.9,9.9C143.1,232,147.6,236.4,153,236.4z
		 M169.1,255.7c-3.2,0-5.7-2.5-5.7-5.5c0-3,2.5-5.7,5.7-5.7c3,0,5.5,2.7,5.5,5.7C174.5,253.2,172,255.7,169.1,255.7z M153,221
		c3,0,5.5,2.5,5.5,5.7c0,2.7-2.5,5.5-5.5,5.5c-3,0-5.7-2.7-5.7-5.5C147.3,223.5,150,221,153,221z"/>
	<linearGradient id="SVGID_4_" gradientUnits="userSpaceOnUse" x1="304.3383" y1="158.5186" x2="190.2362" y2="272.6207">
		<stop  offset="0.14" style="stop-color:#E92987"/>
		<stop  offset="0.4544" style="stop-color:#B11D91"/>
		<stop  offset="1" style="stop-color:#5409A2"/>
	</linearGradient>
	<path class="st4" d="M226.3,242.2c0-3-2.5-5.7-5.7-5.7c-3,0-5.5,2.7-5.5,5.7c0,3,2.5,5.5,5.5,5.5
		C223.9,247.6,226.3,245.2,226.3,242.2z"/>
	<linearGradient id="SVGID_5_" gradientUnits="userSpaceOnUse" x1="285.6456" y1="139.8259" x2="171.5435" y2="253.928">
		<stop  offset="0.14" style="stop-color:#E92987"/>
		<stop  offset="0.4544" style="stop-color:#B11D91"/>
		<stop  offset="1" style="stop-color:#5409A2"/>
	</linearGradient>
	<path class="st5" d="M239.8,191.3c3,0,5.5-2.5,5.5-5.5c0-3.2-2.5-5.7-5.5-5.7c-3,0-5.7,2.5-5.7,5.7
		C234.1,188.8,236.8,191.3,239.8,191.3z"/>
	<linearGradient id="SVGID_6_" gradientUnits="userSpaceOnUse" x1="351.7531" y1="205.9399" x2="237.651" y2="320.0419">
		<stop  offset="0.14" style="stop-color:#E92987"/>
		<stop  offset="0.4544" style="stop-color:#B11D91"/>
		<stop  offset="1" style="stop-color:#5409A2"/>
	</linearGradient>
	<path class="st6" d="M248.5,314.8c0-3.2-2.5-5.5-5.5-5.5c-3.2,0-5.7,2.2-5.7,5.5c0,3,2.5,5.5,5.7,5.5
		C246,320.3,248.5,317.8,248.5,314.8z"/>
	<linearGradient id="SVGID_7_" gradientUnits="userSpaceOnUse" x1="351.0544" y1="205.2347" x2="236.9523" y2="319.3368">
		<stop  offset="0.14" style="stop-color:#E92987"/>
		<stop  offset="0.4544" style="stop-color:#B11D91"/>
		<stop  offset="1" style="stop-color:#5409A2"/>
	</linearGradient>
	<path class="st7" d="M312.9,255.3c-15.4,0-27.9,12.5-27.9,27.9v0h35.6c-2,6.3-5.2,11.4-9.5,15.4c-6.8,6.3-16.4,9.5-28.9,9.5
		c-8.5,0-15.7-1.6-21.6-4.9c-5.9-3.3-10.7-7.6-14.4-13.1c-3.4-5.1-6-10.8-7.7-17.1h-13.3l-12.7-12.7h-14.1c0.1,0.7,0.1,1.3,0.2,2
		h-4.4l-11.5,10.5h-19.9c-1-4-4.7-6.5-8.9-6.5c-5.5,0-9.9,4.2-9.9,9.7c0,5.5,4.5,9.9,9.9,9.9c4.7,0,8.7-3.5,9.7-7.9h21.4l11.5-10.3
		h2.8c0.3,1.7,0.6,3.3,0.9,4.9l3.8,0c0,0,0,0,0,0c0.7-2.7,3.5-4.5,6.2-4.5c4,0,7.2,3,7.2,7c0,3.7-3.2,7-7.2,7c-2.7,0-5.5-2-6.2-4.7
		c0,0-0.1-0.1-0.1-0.1h-2.7c0.5,1.8,1,3.6,1.5,5.4h-10.6l-14.4,14.7c-1.7-0.8-3.3-1.4-5.4-1.2c-4.3,0.3-8,3.6-8.8,7.8
		c-1.2,6.4,3.3,12,9.5,12c2.3,0,4.4-0.9,6.2-2.4c4.2-3.5,4.8-8.7,2.2-12.5l13.2-12.9h10c0.4,1.1,0.9,2.2,1.3,3.2h17.9l14.4,14.7
		c1.7-0.8,3.3-1.4,5.4-1.2c4.3,0.3,8,3.6,8.8,7.8c1.2,6.4-3.3,12-9.5,12c-2.3,0-4.4-0.9-6.2-2.4c-4.2-3.5-4.8-8.7-2.3-12.5
		l-13.2-12.9h-12.8c1,1.9,2,3.7,3.1,5.5l-4.3,0c0,0,0,0,0,0c-0.7-2.7-3.5-4.5-6.2-4.5c-4,0-7.2,3-7.2,7c0,3.7,3.2,7,7.2,7
		c2.7,0,5.5-2,6.2-4.7c0,0,0.1-0.1,0.1-0.1h7.3c1.7,2.4,3.6,4.7,5.5,6.9c7.2,8,16,14.3,26.5,18.8c10.5,4.6,22.3,6.8,35.4,6.8
		c8.3,0,16.5-1.7,24.7-5.2c8.2-3.4,15.6-9.5,22.3-18.1c0.4,1.9,1,3.7,1.8,5.4c4,10.5,14.2,17.9,26.1,17.9v-3.8v-52.5v-15.7v-0.4
		v-11.8H312.9z M159,277.9c-0.7,2.2-2.9,3.8-5.2,3.8c-3.2,0-5.7-2.5-5.7-5.5c0-3,2.5-5.5,5.7-5.5C157.4,270.7,160.2,274.2,159,277.9
		z M172.8,311.5c-2.8-0.1-5.3-2.7-5.3-5.5c0-3.8,3.6-6.2,7.3-5.1c1.7,0.5,3.1,1.9,3.6,3.7C179.5,308.3,176.7,311.7,172.8,311.5z
		 M205,305.6c-0.3,1.5-1.5,2.6-3,2.9c-2.7,0.6-4.9-1.4-4.9-3.6c0-2.2,1.7-4,4-4C203.3,300.9,205.5,303,205,305.6z"/>
	<linearGradient id="SVGID_8_" gradientUnits="userSpaceOnUse" x1="324.7291" y1="210.6406" x2="222.9935" y2="312.3762">
		<stop  offset="0.14" style="stop-color:#E92987"/>
		<stop  offset="0.4544" style="stop-color:#B11D91"/>
		<stop  offset="1" style="stop-color:#5409A2"/>
	</linearGradient>
	<path class="st8" d="M318.1,279.4c-2.2,9.6-6.6,16.8-12.9,21.6c-6.4,4.8-14.1,7.2-23.2,7.2c-8.4,0-15.5-1.7-21.4-4.9
		c-5.9-3.3-10.7-7.6-14.4-13.1c-3.4-5.1-6-10.8-7.7-17.1h-13.3l-12.7-12.7h-14.1c0.1,0.7,0.1,1.3,0.2,2h-4.4l-11.5,10.5h-19.9
		c-1-4-4.7-6.5-8.9-6.5c-5.5,0-9.9,4.2-9.9,9.7c0,5.5,4.5,9.9,9.9,9.9c4.7,0,8.7-3.5,9.7-7.9h21.4l11.5-10.3h2.8
		c0.3,1.7,0.6,3.3,0.9,4.9l3.8,0c0,0,0,0,0,0c0.7-2.7,3.5-4.5,6.2-4.5c4,0,7.2,3,7.2,7c0,3.7-3.2,7-7.2,7c-2.7,0-5.5-2-6.2-4.7
		c0,0-0.1-0.1-0.1-0.1h-2.7c0.1,0.5,0.3,1.1,0.4,1.6l0,0c0.1,0.3,0.2,0.5,0.2,0.8c0.3,1,0.6,2,0.9,3l-0.3,0h-10.3l-14.4,14.7
		c-1.8-0.9-3.7-1.4-6-1.2c-3.9,0.5-7.1,3.3-8.1,7.1c-1.9,7.2,3.9,13.8,11.1,12.5c1-0.2,2-0.6,2.9-1.1c5.5-3.4,6.6-9.4,3.8-13.6
		l13.2-12.9h10c0.4,1.1,0.9,2.2,1.3,3.2h17.9l14.4,14.7c1.8-0.9,3.7-1.4,6-1.2c3.9,0.5,7.1,3.3,8.1,7.1c1.9,7.2-3.9,13.8-11.1,12.6
		c-1-0.2-2-0.6-2.9-1.1c-5.5-3.4-6.6-9.4-3.8-13.6l-13.2-12.9h-12.8c1,1.9,2,3.7,3.1,5.5l-4.3,0c0,0,0,0,0,0
		c-0.7-2.7-3.5-4.5-6.2-4.5c-2.8,0-5.3,1.5-6.5,3.8c-0.6,0.9-1,2-1,3.3c0,3.7,3.2,7,7.2,7c3,0,5.5-1.7,6.4-4.7h7.7
		c1.6,2.2,3.3,4.3,5,6.3c7.2,8.2,16,14.5,26.5,19.2c10.5,4.6,22.3,7,35.4,7c8.8,0,17.3-1.3,25.5-4c8.2-2.6,15.7-6.5,22.3-11.6
		c6.6-5.1,12.1-11.4,16.4-18.9c4.3-7.5,7-16.1,7.9-25.9H318.1z M159,277.8c-0.7,2.2-2.8,3.8-5.2,3.8c-3.2,0-5.7-2.5-5.7-5.5
		c0-3,2.5-5.5,5.7-5.5C157.3,270.7,160.2,274.1,159,277.8z M176.1,301.4c0.8,0.4,1.4,1,1.8,1.8c2.3,4.3-1,8.8-5.6,8.3
		c-2.4-0.3-4.6-2.6-4.7-5C167.3,302,171.9,299.2,176.1,301.4z M200.8,309.1c-2.2,0-4-1.7-4-4c0-2.2,1.7-4,4-4c2,0,4,1.7,4,4
		C204.8,307.3,202.8,309.1,200.8,309.1z"/>
</g>
</svg>
