<svg xmlns="http://www.w3.org/2000/svg" xmlns:xlink="http://www.w3.org/1999/xlink" viewBox="0 0 178.36 149.4"><defs><style>.cls-1{fill:url(#linear-gradient);}.cls-2{fill:url(#linear-gradient-2);}.cls-3{fill:url(#linear-gradient-3);}.cls-4{fill:url(#linear-gradient-4);}.cls-5{fill:url(#linear-gradient-5);}.cls-6{fill:url(#linear-gradient-6);}.cls-7{fill:url(#linear-gradient-7);}</style><linearGradient id="linear-gradient" x1="134.18" y1="-1.91" x2="39.02" y2="93.25" gradientUnits="userSpaceOnUse"><stop offset="0.14" stop-color="#e92987"/><stop offset="0.45" stop-color="#b11d91"/><stop offset="1" stop-color="#5409a2"/></linearGradient><linearGradient id="linear-gradient-2" x1="143.88" y1="7.78" x2="48.71" y2="102.94" xlink:href="#linear-gradient"/><linearGradient id="linear-gradient-3" x1="123.06" y1="-13.04" x2="27.89" y2="82.12" xlink:href="#linear-gradient"/><linearGradient id="linear-gradient-4" x1="134.5" y1="-1.6" x2="39.34" y2="93.57" xlink:href="#linear-gradient"/><linearGradient id="linear-gradient-5" x1="118.91" y1="-17.19" x2="23.75" y2="77.98" xlink:href="#linear-gradient"/><linearGradient id="linear-gradient-6" x1="174.05" y1="37.95" x2="78.89" y2="133.12" xlink:href="#linear-gradient"/><linearGradient id="linear-gradient-7" x1="173.46" y1="37.37" x2="78.3" y2="132.53" xlink:href="#linear-gradient"/></defs><title>Asset 1</title><g id="Layer_2" data-name="Layer 2"><g id="Layer_1-2" data-name="Layer 1"><path class="cls-1" d="M21.68,36a6.71,6.71,0,0,0,3.52-.83L37.63,47.58H50q-.51,1.59-1,3.21h8.92L68.46,45H83.84c.66-1.21,1.36-2.38,2.12-3.52a34,34,0,0,1,12-11q7.4-4.09,18-4.1,11.4,0,19.4,6t10.8,18h30A52.44,52.44,0,0,0,155.86,13a60.2,60.2,0,0,0-18.6-9.7A69.42,69.42,0,0,0,116,0a72.07,72.07,0,0,0-29.5,5.8,63.17,63.17,0,0,0-22.1,16,66.58,66.58,0,0,0-4.2,5.28h-6.4a5.52,5.52,0,0,0-5.38-3.93,6,6,0,0,0-6,5.8,5.85,5.85,0,0,0,11.38,1.86h3.91Q56,33.56,54.48,36.5h8.4l10.78-11a9.55,9.55,0,0,1-1.26-4.35,8.32,8.32,0,0,1,8.29-8.27A8.43,8.43,0,0,1,89,21.17a8.25,8.25,0,0,1-8.27,8.08,6.66,6.66,0,0,1-3.51-.83L64.74,40.85H52.48c-.34.79-.68,1.57-1,2.38h-12l-10.78-11A9.55,9.55,0,0,0,30,27.91a8.32,8.32,0,0,0-8.29-8.28,8.43,8.43,0,0,0-8.27,8.28A8.24,8.24,0,0,0,21.68,36Zm26.7-3.73a3.31,3.31,0,1,1,0-6.62,3.31,3.31,0,1,1,0,6.62Zm-26.7-9.1a4.83,4.83,0,0,1,4.77,4.76,4.8,4.8,0,0,1-4.77,4.56,4.66,4.66,0,0,1,0-9.32Z"/><path class="cls-2" d="M59.3,95.72A3.27,3.27,0,0,0,56,92.41a3.21,3.21,0,1,0,0,6.42A3.23,3.23,0,0,0,59.3,95.72Z"/><path class="cls-3" d="M8.29,63.37A8.09,8.09,0,0,0,16,58a5.7,5.7,0,0,0,.37-1h19.6l10.46,7.33c-.06.52-.09,1-.14,1.57H57a7.79,7.79,0,0,1,7.66-6,8.29,8.29,0,0,1,0,16.57,7.79,7.79,0,0,1-7.66-6H45.92c0,.72-.09,1.44-.11,2.17H29.34a7.79,7.79,0,0,0-7.66-6,8.29,8.29,0,0,0,0,16.57,7.79,7.79,0,0,0,7.66-6H45.8c0,.55,0,1.1.06,1.65H59.79L70.34,89.6h8.2a73.36,73.36,0,0,1-1.38-14.2,78.14,78.14,0,0,1,2.1-18.2,53,53,0,0,1,2.44-7.62H70.55L59.77,55.13H47.91c-.29,1.33-.56,2.66-.8,4L38,52.44H16.06A8.22,8.22,0,0,0,8.29,47a8.18,8.18,0,1,0,0,16.35ZM21.68,79.46a4.63,4.63,0,0,1-4.75-4.56,4.81,4.81,0,0,1,4.75-4.76,4.79,4.79,0,0,1,4.55,4.76A4.59,4.59,0,0,1,21.68,79.46ZM8.29,50.55a4.63,4.63,0,0,1,4.55,4.76,4.73,4.73,0,0,1-4.55,4.55,4.94,4.94,0,0,1-4.77-4.55A4.81,4.81,0,0,1,8.29,50.55Z"/><path class="cls-4" d="M69.45,68.17a4.65,4.65,0,1,0-9.3,0,4.59,4.59,0,0,0,4.54,4.56A4.64,4.64,0,0,0,69.45,68.17Z"/><path class="cls-5" d="M80.69,25.73a4.59,4.59,0,0,0,4.55-4.56,4.64,4.64,0,0,0-4.55-4.76,4.83,4.83,0,0,0-4.77,4.76A4.79,4.79,0,0,0,80.69,25.73Z"/><path class="cls-6" d="M87.93,128.75a4.45,4.45,0,0,0-4.55-4.55,4.5,4.5,0,0,0-4.75,4.55,4.63,4.63,0,0,0,4.75,4.55A4.58,4.58,0,0,0,87.93,128.75Z"/><path class="cls-7" d="M141.6,79.13a23.3,23.3,0,0,0-23.3,23.29H148a29.56,29.56,0,0,1-7.92,12.88q-8.51,7.9-24.1,7.9-10.6,0-18-4.1a34.4,34.4,0,0,1-12-10.9A46.82,46.82,0,0,1,79.54,94H68.48L57.91,83.38H46.13c0,.56.07,1.12.13,1.67H42.58L33,93.82H16.43A7.41,7.41,0,0,0,9,88.43,8.12,8.12,0,0,0,.71,96.51,8.29,8.29,0,0,0,9,104.79,8.37,8.37,0,0,0,17,98.17H34.89l9.57-8.57h2.38c.21,1.38.47,2.75.75,4.1h3.18l0,0A5.34,5.34,0,0,1,56,89.92a5.84,5.84,0,0,1,6,5.8,6,6,0,0,1-6,5.8,5.52,5.52,0,0,1-5.18-3.94l-.08-.08H48.46c.39,1.53.81,3,1.28,4.52H40.93l-12,12.23a8.38,8.38,0,0,0-4.5-1,8.27,8.27,0,1,0,5.72,14.57A7.82,7.82,0,0,0,32,117.34l11-10.76h8.35c.35.92.73,1.82,1.12,2.71h15l12,12.22a8.33,8.33,0,0,1,4.49-1,8.12,8.12,0,0,1,7.34,6.5,8,8,0,0,1-13,8.07c-3.48-2.9-4-7.27-1.88-10.46l-11-10.76H54.65c.81,1.57,1.66,3.1,2.57,4.58H53.6l0,0a5.34,5.34,0,0,0-5.18-3.75,5.84,5.84,0,0,0-6,5.8,6,6,0,0,0,6,5.81,5.53,5.53,0,0,0,5.18-4,.6.6,0,0,0,.08-.08h6.1A65.94,65.94,0,0,0,64.36,128a63.2,63.2,0,0,0,22.1,15.7,73.22,73.22,0,0,0,29.5,5.7,52.57,52.57,0,0,0,20.6-4.3q10.2-4.31,18.6-15.1a19.77,19.77,0,0,0,1.47,4.48,23.28,23.28,0,0,0,21.73,14.92V79.13ZM13.3,97.94A4.64,4.64,0,1,1,9,92,4.61,4.61,0,0,1,13.3,97.94ZM24.83,126a4.73,4.73,0,0,1-4.39-4.61,4.54,4.54,0,0,1,6.11-4.24,4.48,4.48,0,0,1,3,3.06A4.6,4.6,0,0,1,24.83,126Zm26.82-5a3.18,3.18,0,0,1-2.47,2.45,3.23,3.23,0,1,1-.8-6.34A3.38,3.38,0,0,1,51.65,121Z"/></g></g></svg>