<?xml version="1.0" encoding="utf-8"?>
<!-- Generator: Adobe Illustrator 24.0.1, SVG Export Plug-In . SVG Version: 6.00 Build 0)  -->
<svg version="1.1" id="Layer_1" xmlns="http://www.w3.org/2000/svg" xmlns:xlink="http://www.w3.org/1999/xlink" x="0px" y="0px"
	 viewBox="0 0 211.2 179.4" style="enable-background:new 0 0 211.2 179.4;" xml:space="preserve">
<style type="text/css">
	.st0{fill:url(#SVGID_1_);}
	.st1{fill:url(#SVGID_2_);}
	.st2{fill:url(#SVGID_3_);}
	.st3{fill:url(#SVGID_4_);}
	.st4{fill:url(#SVGID_5_);}
	.st5{fill:url(#SVGID_6_);}
	.st6{fill:url(#SVGID_7_);}
</style>
<linearGradient id="SVGID_1_" gradientUnits="userSpaceOnUse" x1="303.9647" y1="21.8553" x2="189.8647" y2="-92.2447" gradientTransform="matrix(1 0 0 -1 -143.07 19.57)">
	<stop  offset="0.14" style="stop-color:#E92987"/>
	<stop  offset="0.45" style="stop-color:#B11D91"/>
	<stop  offset="1" style="stop-color:#5409A2"/>
</linearGradient>
<path class="st0" d="M26,43.2c1.5,0.1,2.9-0.3,4.2-1l14.9,14.9h14.8c-0.4,1.3-0.8,2.6-1.1,3.9h10.6L82.1,54h18.4
	c0.8-1.5,1.6-2.9,2.5-4.2c3.7-5.5,8.6-10,14.4-13.2c5.9-3.3,13.1-4.9,21.6-4.9c9.1,0,16.9,2.4,23.3,7.2c6.4,4.8,10.7,12,13,21.6h36
	c-1.4-17.7-10.2-34-24.3-44.9c-6.7-5.1-14.2-9.1-22.3-11.6c-8.3-2.7-16.9-4-25.5-4c-13.1,0-24.9,2.3-35.4,7
	c-10.1,4.4-19.2,10.9-26.5,19.2c-1.8,2-3.4,4.1-5,6.3h-7.7c-0.9-2.8-3.5-4.8-6.4-4.7c-3.9,0-7.1,3.1-7.2,7c0,3.9,3.1,7,7,7
	c3,0,5.7-1.9,6.7-4.8h4.7c-1.4,2.2-2.6,4.5-3.8,6.8h10.1l12.8-13.2c-0.9-1.6-1.4-3.4-1.5-5.2c0-5.5,4.5-9.9,9.9-9.9
	c5.4,0.1,9.8,4.5,9.9,9.9c-0.1,5.4-4.5,9.7-9.9,9.7c-1.5,0.1-2.9-0.3-4.2-1L77.6,48.9H62.9c-0.4,0.9-0.8,1.9-1.2,2.9H47.3L34.4,38.7
	c0.9-1.6,1.4-3.4,1.5-5.2c0-5.5-4.5-9.9-9.9-9.9c-5.4,0.1-9.8,4.5-9.9,9.9C16.2,38.9,20.6,43.2,26,43.2z M58,38.7
	c-2.2,0.3-4.2-1.3-4.5-3.5s1.3-4.2,3.5-4.5c0.3,0,0.7,0,1,0c2.2-0.3,4.2,1.3,4.5,3.5s-1.3,4.2-3.5,4.5C58.6,38.7,58.3,38.7,58,38.7z
	 M26,27.8c3.1,0,5.6,2.5,5.6,5.6c0,3.1-2.5,5.6-5.6,5.6c0,0,0,0,0,0c-3,0-5.4-2.5-5.4-5.5C20.5,30.4,22.9,27.8,26,27.8
	C26,27.8,26,27.8,26,27.8z"/>
<linearGradient id="SVGID_2_" gradientUnits="userSpaceOnUse" x1="315.5042" y1="10.3158" x2="201.4042" y2="-103.7842" gradientTransform="matrix(1 0 0 -1 -143.07 19.57)">
	<stop  offset="0.14" style="stop-color:#E92987"/>
	<stop  offset="0.45" style="stop-color:#B11D91"/>
	<stop  offset="1" style="stop-color:#5409A2"/>
</linearGradient>
<path class="st1" d="M71.1,114.8c0-2.2-1.7-4-3.8-4c-0.1,0-0.1,0-0.2,0c-2.1-0.1-3.9,1.5-4.1,3.7s1.5,3.9,3.7,4.1c0.1,0,0.3,0,0.4,0
	C69.2,118.5,71,116.9,71.1,114.8z"/>
<linearGradient id="SVGID_3_" gradientUnits="userSpaceOnUse" x1="290.5696" y1="35.2504" x2="176.4696" y2="-78.8496" gradientTransform="matrix(1 0 0 -1 -143.07 19.57)">
	<stop  offset="0.14" style="stop-color:#E92987"/>
	<stop  offset="0.45" style="stop-color:#B11D91"/>
	<stop  offset="1" style="stop-color:#5409A2"/>
</linearGradient>
<path class="st2" d="M9.9,76c4.1,0,7.8-2.5,9.2-6.4c0.2-0.4,0.3-0.8,0.4-1.2h23.5l12.5,8.8c-0.1,0.6-0.1,1.3-0.2,1.9h12.9
	c1-4.3,4.8-7.2,9.2-7.2c5.5,0.2,9.8,4.8,9.6,10.3c-0.2,5.2-4.4,9.5-9.6,9.6c-4.4,0-8.2-2.9-9.2-7.2H55c0,0.9-0.1,1.7-0.1,2.6H35.2
	c-1-4.3-4.8-7.3-9.2-7.2c-5.5,0.2-9.8,4.8-9.6,10.3c0.2,5.2,4.4,9.5,9.6,9.6c4.4,0,8.2-2.9,9.2-7.2h19.8c0,0.7,0.1,1.3,0.1,2h16.7
	l12.6,12.9h9.8c-1.1-5.6-1.7-11.3-1.6-17c0-7.4,0.8-14.7,2.5-21.9c0.7-3.1,1.7-6.2,2.9-9.1H84.6l-12.9,6.7H57.4
	c-0.4,1.6-0.7,3.2-1,4.8l-10.9-8H19.3c-1.4-3.9-5.2-6.5-9.3-6.5C4.5,56.2,0,60.5-0.2,65.9c-0.2,5.4,4.1,9.9,9.5,10.1
	C9.5,76,9.7,76,9.9,76L9.9,76z M26,95.3c-3.1,0.1-5.6-2.3-5.7-5.4c0,0,0,0,0-0.1c-0.1-3.1,2.3-5.7,5.3-5.8s5.7,2.3,5.8,5.3
	c0,0.2,0,0.3,0,0.5C31.4,92.8,29,95.2,26,95.3L26,95.3z M9.9,60.6c3.1,0.1,5.5,2.6,5.5,5.7c0,0,0,0,0,0.1c-0.1,3-2.5,5.4-5.5,5.5
	c-3-0.1-5.5-2.4-5.7-5.4C4.2,63.2,6.8,60.6,9.9,60.6z"/>
<linearGradient id="SVGID_4_" gradientUnits="userSpaceOnUse" x1="304.2917" y1="21.5282" x2="190.1918" y2="-92.5717" gradientTransform="matrix(1 0 0 -1 -143.07 19.57)">
	<stop  offset="0.14" style="stop-color:#E92987"/>
	<stop  offset="0.45" style="stop-color:#B11D91"/>
	<stop  offset="1" style="stop-color:#5409A2"/>
</linearGradient>
<path class="st3" d="M83.3,81.7c0.1-3.1-2.3-5.7-5.3-5.8s-5.7,2.3-5.8,5.3c0,0.2,0,0.3,0,0.5c0,3,2.4,5.4,5.4,5.5
	C80.6,87.3,83.2,84.8,83.3,81.7C83.3,81.8,83.3,81.8,83.3,81.7z"/>
<linearGradient id="SVGID_5_" gradientUnits="userSpaceOnUse" x1="285.6704" y1="40.1496" x2="171.5604" y2="-73.9503" gradientTransform="matrix(1 0 0 -1 -143.07 19.57)">
	<stop  offset="0.14" style="stop-color:#E92987"/>
	<stop  offset="0.45" style="stop-color:#B11D91"/>
	<stop  offset="1" style="stop-color:#5409A2"/>
</linearGradient>
<path class="st4" d="M96.8,30.9c3.1,0,5.6-2.5,5.6-5.6c0-3.1-2.5-5.6-5.6-5.6c-3.1,0-5.6,2.5-5.6,5.6C91.1,28.4,93.6,30.9,96.8,30.9
	C96.7,30.9,96.7,30.9,96.8,30.9L96.8,30.9z"/>
<linearGradient id="SVGID_6_" gradientUnits="userSpaceOnUse" x1="351.7513" y1="-25.9413" x2="237.6513" y2="-140.0413" gradientTransform="matrix(1 0 0 -1 -143.07 19.57)">
	<stop  offset="0.14" style="stop-color:#E92987"/>
	<stop  offset="0.45" style="stop-color:#B11D91"/>
	<stop  offset="1" style="stop-color:#5409A2"/>
</linearGradient>
<path class="st5" d="M105.4,154.4c0.1-3-2.3-5.4-5.2-5.5c-0.1,0-0.1,0-0.2,0c-3-0.2-5.5,2.1-5.7,5.1c0,0.1,0,0.2,0,0.3
	c0.1,3.1,2.6,5.5,5.6,5.5c0,0,0,0,0.1,0C103,159.8,105.4,157.4,105.4,154.4z"/>
<linearGradient id="SVGID_7_" gradientUnits="userSpaceOnUse" x1="324.7678" y1="-30.6778" x2="223.0278" y2="-132.4178" gradientTransform="matrix(1 0 0 -1 -143.07 19.57)">
	<stop  offset="0.14" style="stop-color:#E92987"/>
	<stop  offset="0.45" style="stop-color:#B11D91"/>
	<stop  offset="1" style="stop-color:#5409A2"/>
</linearGradient>
<path class="st6" d="M175,118.9c-2.2,9.6-6.6,16.8-13,21.6c-6.4,4.8-14.1,7.2-23.2,7.2c-8.4,0-15.5-1.6-21.4-4.9
	c-5.8-3.1-10.7-7.6-14.4-13.1c-3.5-5.2-6.1-11-7.7-17.1H82.1L69.4,100H55.3c0.1,0.7,0.1,1.3,0.2,2h-4.4l-11.5,10.5H19.7
	c-1-4-4.7-6.5-8.9-6.5c-5.4-0.1-9.8,4.2-9.9,9.6c0,0,0,0.1,0,0.1c0,5.5,4.4,9.9,9.9,9.9c4.7,0,8.8-3.3,9.7-7.9h21.4l11.5-10.3h2.9
	c0.2,1.6,0.6,3.3,0.9,4.9h3.9l0,0c0.8-2.7,3.4-4.5,6.2-4.5c3.9-0.1,7.1,2.9,7.2,6.8c0,0.1,0,0.1,0,0.2c-0.1,3.9-3.3,7-7.2,7
	c-2.9-0.1-5.4-2-6.2-4.7l-0.1-0.1h-2.7l0.4,1.6l0,0c0.1,0.3,0.2,0.5,0.2,0.8c0.3,1,0.6,2,0.9,3H49.1l-14.4,14.7
	c-1.8-1-3.9-1.4-6-1.2c-3.9,0.5-7.1,3.3-8.1,7.1c-1.9,7.2,3.9,13.8,11.1,12.5c1-0.2,2-0.6,2.9-1.1c5.5-3.4,6.6-9.4,3.8-13.6
	l13.2-12.9h10c0.4,1.1,0.9,2.2,1.3,3.2h17.9l14.4,14.6c1.8-1,3.9-1.4,6-1.2c3.9,0.5,7.1,3.3,8.1,7.1c1.9,7.2-3.9,13.8-11.1,12.5
	c-1-0.2-2-0.6-2.9-1.1c-5.5-3.4-6.6-9.4-3.8-13.6l-13.2-12.9H65.5c1,1.9,2,3.7,3.1,5.5h-4.3h-0.1c-0.8-2.7-3.4-4.5-6.2-4.5
	c-2.7,0-5.2,1.4-6.5,3.9c-0.7,1-1,2.2-1,3.3c0.1,3.9,3.3,7,7.2,7c3,0.1,5.6-1.9,6.4-4.7h7.7c1.6,2.2,3.2,4.3,5,6.3
	c7.3,8.3,16.4,14.8,26.5,19.2c10.5,4.6,22.3,6.9,35.4,7c8.7,0,17.3-1.3,25.5-4c8.1-2.6,15.6-6.5,22.3-11.6
	c14.1-10.8,22.9-27.1,24.3-44.9L175,118.9z M16,117.4c-0.7,2.3-2.8,3.8-5.2,3.8c-3,0.1-5.6-2.2-5.7-5.2c-0.1-3,2.2-5.6,5.2-5.7
	c0.2,0,0.3,0,0.5,0c3,0.1,5.4,2.6,5.4,5.6C16.2,116.4,16.1,116.9,16,117.4L16,117.4z M33.1,141c0.8,0.4,1.4,1,1.8,1.8
	c1.5,2.6,0.7,6-2,7.6c-1.1,0.6-2.4,0.9-3.6,0.7c-2.5-0.4-4.5-2.5-4.8-5C24.2,141.6,28.8,138.8,33.1,141L33.1,141z M57.8,148.6
	c-2.2,0.3-4.2-1.3-4.5-3.5c-0.3-2.2,1.3-4.2,3.5-4.5c0.3,0,0.7,0,1,0c2.2-0.3,4.2,1.3,4.5,3.5c0.3,2.2-1.3,4.2-3.5,4.5
	C58.5,148.7,58.1,148.7,57.8,148.6z"/>
</svg>
