<?xml version="1.0" standalone="no"?>
<!DOCTYPE svg PUBLIC "-//W3C//DTD SVG 20010904//EN"
 "http://www.w3.org/TR/2001/REC-SVG-20010904/DTD/svg10.dtd">
<svg version="1.0" xmlns="http://www.w3.org/2000/svg"
 width="1928.000000pt" height="1928.000000pt" viewBox="0 0 1928.000000 1928.000000"
 preserveAspectRatio="xMidYMid meet">
<metadata>
Created by potrace 1.11, written by Peter Selinger 2001-2013
</metadata>
<g transform="translate(0.000000,1928.000000) scale(0.100000,-0.100000)"
fill="#000000" stroke="none">
<path d="M11345 14592 c-16 -10 -57 -34 -90 -52 -33 -18 -62 -36 -65 -39 -8
-10 -64 -41 -92 -52 -16 -6 -28 -15 -28 -21 0 -5 -4 -7 -9 -3 -5 3 -12 1 -16
-4 -3 -6 -38 -28 -78 -51 -39 -22 -94 -54 -122 -71 -27 -16 -58 -32 -67 -36
-10 -3 -18 -9 -18 -13 0 -21 -82 -29 -105 -10 -6 5 -22 11 -35 13 -14 2 -32 7
-40 10 -45 19 -348 93 -415 102 -16 2 -32 5 -35 6 -6 3 -11 3 -80 13 -30 5
-64 10 -75 13 -11 2 -38 6 -60 8 -22 2 -40 4 -40 5 0 1 -16 4 -35 5 -19 2 -62
6 -95 10 -33 3 -94 8 -135 10 -41 2 -75 4 -75 5 0 1 -54 4 -120 6 -66 2 -125
6 -132 8 -7 3 -14 2 -17 -3 -3 -4 -29 -5 -58 -2 -29 3 -216 6 -415 6 -200 0
-363 4 -363 8 0 5 -5 5 -11 1 -15 -9 -114 -8 -130 2 -8 4 -10 3 -5 -4 9 -14 5
-15 -28 -2 -16 6 -27 6 -31 0 -4 -7 -13 -6 -25 0 -13 7 -21 7 -25 0 -4 -6 -11
-8 -16 -4 -8 5 -569 11 -1624 18 -159 1 -295 5 -302 9 -6 4 -14 4 -16 -1 -6
-9 -79 -8 -95 2 -7 4 -12 3 -12 -1 0 -9 -68 -9 -77 0 -3 3 -15 2 -28 -3 -14
-5 -26 -5 -34 3 -8 8 -11 8 -11 -1 0 -8 -7 -9 -23 -3 -14 5 -30 5 -40 0 -11
-7 -17 -6 -17 1 0 8 -6 8 -20 0 -13 -7 -20 -7 -20 -1 0 7 -9 7 -26 1 -16 -7
-23 -7 -19 0 4 7 -2 7 -18 1 -14 -6 -28 -7 -31 -4 -3 3 -234 7 -513 9 -1160 7
-1592 12 -1602 19 -6 3 -11 2 -11 -3 0 -5 -17 -6 -40 -2 -23 4 -40 3 -40 -2 0
-5 -7 -5 -17 1 -10 5 -26 5 -40 0 -12 -4 -25 -4 -28 0 -6 10 -24 9 -41 -2 -6
-3 -14 -4 -17 -1 -3 3 -282 8 -619 11 -337 2 -682 5 -766 6 -83 1 -152 0 -152
-3 0 -3 20 -27 45 -54 25 -27 45 -53 45 -58 0 -5 5 -6 10 -3 6 3 10 2 10 -2 0
-5 28 -39 63 -75 34 -37 96 -104 137 -149 79 -86 144 -158 195 -213 53 -58
259 -278 300 -322 22 -23 83 -88 135 -144 52 -56 118 -126 145 -155 28 -29
100 -106 160 -170 61 -65 133 -141 160 -170 28 -29 105 -111 173 -182 68 -72
146 -156 175 -186 29 -30 106 -112 172 -182 153 -163 153 -164 173 -160 9 1
23 -3 31 -9 10 -8 13 -8 8 0 -8 13 81 13 102 0 9 -6 12 -5 8 1 -8 13 101 12
122 -1 8 -5 12 -5 9 0 -4 5 559 10 1385 12 766 2 1479 4 1585 5 172 2 230 -5
172 -20 -11 -3 -20 -9 -20 -13 0 -4 -8 -11 -17 -14 -10 -3 -27 -12 -38 -19
-11 -7 -65 -38 -120 -71 -55 -32 -111 -65 -125 -74 -14 -9 -25 -14 -25 -11 0
2 -13 -6 -29 -18 -16 -13 -35 -23 -42 -23 -8 0 -14 -4 -14 -8 0 -5 -18 -17
-40 -27 -22 -10 -40 -22 -40 -27 0 -4 -9 -8 -20 -8 -11 0 -20 -3 -20 -8 0 -4
-17 -16 -37 -27 -63 -33 -128 -75 -128 -83 1 -14 28 -62 36 -62 4 0 15 7 23
16 9 8 16 13 16 9 0 -3 25 10 55 30 31 19 58 35 61 35 3 0 24 13 47 28 23 15
56 34 72 42 17 8 32 17 35 20 5 5 18 13 89 52 20 11 44 27 54 36 9 8 17 12 17
9 0 -4 24 9 53 27 30 19 69 43 88 54 44 24 138 79 164 95 100 62 94 60 200 59
55 -1 127 -3 160 -5 33 -2 74 -5 90 -5 28 -2 27 -4 -30 -37 -33 -20 -67 -40
-75 -45 -8 -6 -22 -13 -30 -17 -8 -4 -19 -11 -25 -15 -9 -8 -228 -136 -335
-196 -25 -14 -57 -33 -72 -43 -14 -11 -29 -19 -32 -19 -3 0 -29 -15 -58 -33
-29 -19 -60 -37 -68 -40 -8 -4 -44 -25 -79 -47 -34 -22 -65 -40 -68 -40 -3 0
-18 -9 -34 -21 -16 -11 -29 -18 -29 -15 0 3 -9 -3 -19 -13 -19 -19 -19 -22 -5
-50 9 -17 17 -31 19 -31 8 0 199 110 245 141 8 5 23 12 33 15 9 4 17 10 17 15
0 5 4 9 9 9 8 0 107 57 266 153 17 9 38 20 48 23 9 4 17 11 17 16 0 5 4 7 8 4
5 -3 18 2 28 12 10 9 44 30 74 46 30 16 66 36 80 45 14 9 37 23 53 31 15 7 27
17 27 22 0 4 6 8 13 8 6 0 48 23 92 49 90 56 94 56 253 20 l94 -21 -57 -34
c-31 -19 -58 -34 -60 -34 -3 0 -29 -16 -60 -35 -30 -20 -63 -39 -73 -42 -9 -4
-21 -11 -27 -16 -5 -5 -77 -48 -159 -95 -81 -48 -169 -100 -195 -115 -25 -15
-57 -33 -71 -40 -14 -6 -31 -17 -38 -24 -7 -7 -18 -13 -23 -13 -6 0 -17 -7
-26 -15 -8 -8 -19 -13 -24 -10 -5 4 -9 2 -9 -3 0 -9 -41 -34 -107 -66 -13 -6
-23 -14 -23 -18 0 -5 -4 -8 -10 -8 -5 0 -72 -38 -150 -84 -77 -46 -140 -81
-140 -78 0 4 -4 3 -8 -3 -4 -5 -17 -16 -29 -22 -13 -7 -33 -19 -45 -25 -13 -7
-25 -15 -28 -18 -3 -3 -27 -19 -55 -34 -27 -16 -51 -30 -53 -32 -2 -1 5 -18
15 -38 l18 -35 98 58 c53 33 97 56 97 53 0 -4 4 -2 8 3 7 10 40 31 122 77 46
26 198 116 230 137 14 8 27 16 30 16 3 0 20 10 38 23 17 13 32 20 32 15 0 -4
4 -3 8 3 4 6 27 21 52 35 25 13 47 26 50 29 5 5 13 10 89 52 20 11 47 28 61
37 14 9 36 22 50 29 14 6 52 29 85 49 33 21 81 49 108 63 26 14 47 28 47 32 0
5 5 8 11 8 5 0 81 42 167 92 154 91 167 96 207 79 11 -5 36 -14 55 -21 84 -29
243 -105 297 -141 23 -16 45 -29 50 -29 4 0 20 -11 35 -25 15 -14 30 -25 34
-25 3 0 16 -9 28 -19 11 -11 43 -38 69 -60 27 -23 46 -41 44 -41 -2 0 14 -19
37 -43 55 -58 94 -109 132 -172 34 -56 95 -180 98 -199 1 -6 5 -16 8 -22 4 -6
9 -21 12 -35 2 -13 9 -37 15 -52 6 -16 9 -33 5 -38 -3 -5 -1 -9 4 -9 5 0 9 -6
9 -12 0 -7 4 -33 8 -58 4 -25 9 -56 12 -70 2 -14 5 -62 7 -107 2 -45 6 -85 8
-90 5 -11 1 -286 -6 -423 -10 -171 -11 -178 -18 -186 -4 -3 -3 -14 2 -24 5
-10 6 -20 3 -24 -4 -4 -8 -17 -9 -29 -3 -44 -15 -146 -20 -169 -4 -21 -14
-103 -16 -135 -1 -7 -4 -13 -7 -13 -3 0 -6 -10 -7 -22 -1 -29 -9 -80 -22 -138
-10 -42 -14 -60 -28 -128 -10 -51 -73 -277 -93 -334 -11 -32 -17 -58 -14 -58
3 0 1 -6 -4 -12 -6 -7 -18 -38 -28 -68 -10 -30 -22 -61 -28 -67 -5 -7 -7 -13
-3 -13 3 0 -3 -16 -14 -37 -10 -20 -17 -40 -14 -45 3 -4 0 -8 -5 -8 -6 0 -11
-6 -11 -13 0 -7 -11 -37 -25 -65 -14 -29 -25 -56 -25 -62 0 -5 -4 -10 -10 -10
-5 0 -9 -3 -9 -7 3 -14 -23 -73 -31 -73 -4 0 -10 -10 -14 -23 -3 -12 -28 -60
-56 -106 -27 -46 -50 -88 -50 -93 0 -4 -4 -8 -10 -8 -5 0 -12 -11 -16 -25 -3
-14 -9 -25 -13 -25 -3 0 -19 -21 -36 -48 -16 -26 -32 -49 -35 -52 -3 -3 -30
-36 -60 -75 -105 -135 -229 -261 -375 -381 -72 -59 -260 -183 -341 -224 -38
-19 -72 -39 -75 -43 -3 -5 -9 -9 -12 -8 -4 0 -33 -11 -64 -26 -32 -14 -62 -26
-68 -28 -5 -1 -23 -8 -40 -15 -72 -30 -263 -88 -343 -105 -9 -2 -37 -8 -62
-13 -51 -12 -124 -24 -225 -37 -219 -28 -672 -28 -870 2 -38 5 -76 10 -102 12
-6 1 -10 11 -8 24 2 12 6 40 10 62 7 48 16 103 22 130 3 11 6 34 8 50 3 17 7
46 11 65 3 19 8 49 11 65 2 17 8 53 13 80 6 28 12 66 14 85 3 19 14 87 25 150
19 103 28 163 37 225 1 11 3 20 4 20 2 0 7 25 14 72 3 21 7 52 10 68 3 17 8
46 11 65 3 19 10 60 15 90 5 30 12 69 14 85 3 17 8 46 11 65 4 19 8 46 10 60
1 14 4 25 5 25 1 0 3 9 4 20 2 11 6 44 10 74 4 30 10 63 12 75 4 19 29 166 39
226 2 14 7 43 10 65 4 22 8 47 10 55 2 8 7 38 11 65 3 28 8 52 9 55 2 3 6 26
10 50 7 54 11 73 36 220 11 63 22 131 25 150 2 19 8 58 14 85 5 28 12 66 14
85 3 19 7 44 10 55 2 11 7 42 10 69 4 27 9 52 10 55 2 3 7 29 10 56 4 28 9 59
12 70 2 11 6 36 9 55 2 19 7 46 10 60 4 14 8 43 10 65 2 22 4 40 5 40 3 0 19
89 26 140 5 45 12 74 20 87 5 7 3 8 -5 3 -10 -6 -11 -3 -2 13 6 12 11 25 10
29 -1 4 0 10 1 13 1 3 3 16 5 30 3 24 12 81 21 124 6 31 17 109 17 124 0 6 5
12 11 12 6 0 5 4 -2 9 -9 5 -37 -4 -81 -28 -37 -20 -132 -69 -211 -110 -80
-40 -190 -97 -245 -125 -55 -29 -181 -94 -280 -146 -99 -51 -220 -114 -270
-139 -49 -25 -91 -49 -93 -53 -2 -5 -11 -8 -21 -8 -9 0 -21 -4 -27 -9 -5 -5
-74 -43 -154 -84 -171 -88 -367 -189 -575 -297 -82 -43 -208 -108 -280 -145
-71 -37 -143 -75 -160 -85 -16 -10 -37 -19 -47 -19 -9 -1 -18 -4 -20 -8 -1 -5
-50 -32 -108 -62 -58 -29 -163 -84 -235 -121 -242 -126 -430 -223 -500 -258
-105 -53 -120 -66 -124 -104 -10 -108 -11 -109 -79 -101 -57 6 -87 10 -87 13
0 1 -20 3 -45 6 -25 2 -61 7 -80 10 -19 3 -52 7 -72 9 -56 5 -80 15 -74 31 3
8 1 14 -4 14 -6 0 -9 3 -8 8 3 16 -21 58 -49 85 -70 66 -196 80 -296 32 -86
-41 -125 -105 -128 -216 -5 -133 137 -246 290 -232 74 7 170 70 171 112 0 14
55 11 220 -13 14 -2 52 -7 85 -11 86 -10 104 -13 114 -19 7 -5 -7 -114 -20
-148 -7 -20 -3 -78 5 -79 6 0 27 -3 46 -6 19 -3 45 -6 58 -6 12 -1 22 -3 22
-6 0 -4 10 -6 23 -7 12 0 48 -4 79 -8 51 -7 61 -5 90 15 18 13 35 26 38 29 3
3 24 18 48 34 23 16 42 33 42 37 0 5 4 8 8 7 4 -2 53 30 107 70 169 124 157
113 150 147 -15 68 -8 141 17 197 25 53 104 142 119 133 4 -3 10 2 13 11 3 8
10 13 15 9 5 -3 12 -1 16 4 6 10 93 27 110 22 6 -2 24 -4 40 -5 44 -4 135 -48
169 -82 46 -47 68 -100 69 -168 1 -62 -21 -166 -34 -166 -4 0 -10 -9 -14 -19
-13 -41 -99 -115 -148 -128 -80 -20 -150 -12 -222 27 -29 16 -31 16 -75 -14
-25 -17 -47 -33 -50 -36 -3 -4 -39 -28 -80 -55 -41 -27 -76 -53 -78 -57 -2 -4
-10 -8 -18 -8 -8 0 -14 -4 -14 -10 0 -5 -4 -10 -10 -10 -5 0 -27 -12 -48 -27
-138 -97 -167 -115 -186 -116 -21 0 -48 4 -191 28 -172 29 -160 30 -164 -7 -4
-44 -7 -58 -15 -88 l-7 -26 -87 13 c-48 7 -100 14 -117 15 -16 1 -34 4 -40 7
-5 3 -23 6 -40 7 -35 2 -119 12 -155 19 -13 3 -39 6 -57 7 -18 1 -33 6 -33 10
0 4 -6 5 -13 2 -7 -2 -78 5 -157 16 -80 11 -165 23 -190 26 -25 3 -54 7 -65 9
-11 2 -27 4 -35 5 -8 0 -26 18 -40 40 -13 22 -28 40 -32 40 -4 0 -8 6 -8 14 0
8 -3 16 -7 18 -5 2 -28 30 -53 63 -25 33 -47 62 -50 65 -4 3 -22 27 -41 54
-18 28 -41 58 -49 67 -8 9 -31 39 -50 66 -19 26 -37 50 -40 53 -24 24 -31 41
-22 53 66 80 86 219 48 322 -2 6 -7 20 -11 33 -4 12 -12 22 -17 22 -5 0 -7 3
-4 8 8 13 -76 97 -124 124 -53 30 -89 40 -150 42 -103 4 -208 -31 -265 -88
-31 -31 -75 -102 -82 -131 -1 -5 -6 -26 -11 -46 -25 -98 18 -247 91 -319 44
-43 77 -71 77 -66 0 2 22 -4 49 -15 37 -13 69 -17 123 -15 40 2 78 5 83 6 24
6 36 -2 59 -37 13 -21 35 -50 48 -65 13 -14 48 -59 78 -98 30 -40 65 -83 78
-96 12 -13 22 -25 22 -28 0 -4 163 -219 189 -248 4 -4 24 -10 46 -12 22 -3 56
-8 75 -11 19 -4 49 -7 65 -9 17 -1 35 -4 40 -8 6 -3 20 -4 32 -3 13 1 23 -1
23 -4 0 -3 17 -7 38 -8 47 -2 157 -18 157 -23 0 0 18 -3 40 -5 64 -7 108 -13
140 -19 17 -3 77 -12 135 -20 58 -9 116 -18 130 -20 45 -8 125 -19 142 -20 17
0 18 -11 2 -96 -12 -66 -14 -119 -6 -124 6 -3 30 -8 54 -11 23 -2 55 -7 71
-10 67 -13 77 -13 77 -4 0 5 7 9 15 9 8 0 15 3 15 8 0 4 16 18 35 31 19 13 47
34 62 47 16 14 33 28 38 32 41 30 133 103 150 119 9 9 35 11 82 8 37 -2 120
-7 183 -10 63 -4 144 -8 180 -10 36 -2 124 -7 195 -11 72 -3 146 -8 165 -9 19
-1 50 -3 67 -4 32 -1 33 -1 28 -43 -3 -24 -8 -60 -11 -80 l-6 -37 -136 5
c-141 6 -277 10 -510 18 -72 3 -136 7 -140 10 -9 5 -59 -26 -117 -71 -16 -13
-34 -27 -40 -31 -5 -4 -38 -28 -73 -52 -34 -24 -62 -48 -62 -52 0 -4 -7 -8
-15 -8 -8 0 -15 -4 -15 -8 0 -10 -51 -36 -64 -33 -5 1 -27 4 -50 7 -23 3 -48
8 -56 11 -8 3 -37 7 -64 10 -28 2 -57 8 -67 13 -22 13 -28 5 -35 -52 l-7 -48
-46 6 c-25 3 -55 8 -66 11 -19 4 -35 7 -120 19 -108 16 -144 21 -170 27 -11 3
-45 8 -75 12 -30 4 -64 9 -75 11 -11 2 -40 7 -65 10 -67 9 -69 10 -145 23
l-70 13 -50 69 c-27 38 -57 78 -65 89 -8 10 -26 33 -40 51 -14 18 -31 38 -37
45 -7 7 -13 17 -13 23 0 12 -20 17 -95 26 -27 3 -63 8 -80 10 -16 3 -46 7 -65
9 -85 10 -147 18 -169 22 -70 10 -110 15 -146 18 -22 2 -51 6 -65 9 -14 3 -50
9 -80 12 -181 19 -188 21 -185 57 1 13 -2 29 -8 36 -5 6 -7 12 -3 12 13 0 -47
95 -79 127 -117 114 -329 130 -470 35 -46 -31 -83 -69 -91 -94 -3 -10 -9 -18
-14 -18 -10 0 -21 -40 -34 -123 -3 -20 -6 -40 -7 -44 -1 -4 0 -10 1 -13 1 -3
3 -21 4 -40 6 -79 90 -186 181 -230 28 -14 53 -25 58 -26 4 -1 8 -2 10 -4 17
-13 151 -19 195 -8 21 5 43 10 50 12 29 6 118 80 141 117 25 38 25 39 75 33
28 -3 69 -7 91 -9 22 -2 40 -5 40 -6 0 -1 9 -3 20 -4 59 -7 124 -16 155 -21
19 -3 53 -7 75 -9 22 -3 54 -7 70 -9 88 -13 133 -19 165 -21 19 -2 36 -4 38
-5 4 -5 22 -7 51 -9 22 -1 38 -14 73 -58 25 -32 62 -76 81 -98 20 -22 37 -43
37 -47 0 -19 86 -99 104 -97 12 1 23 0 26 -1 3 -1 19 -3 35 -5 17 -2 41 -6 55
-8 14 -3 48 -9 75 -12 86 -12 99 -14 135 -20 19 -3 55 -8 80 -11 58 -7 85 -12
85 -14 0 -2 14 -4 30 -5 17 -2 30 -4 30 -5 0 -1 16 -3 35 -5 19 -2 44 -6 55
-8 12 -3 65 -11 118 -18 85 -11 100 -17 99 -39 0 -24 -14 -126 -18 -131 -2 -4
31 -12 74 -18 148 -22 187 -29 187 -31 0 -2 37 -8 100 -14 28 -3 52 -6 55 -7
3 -1 10 -3 15 -4 6 -2 12 -4 15 -5 3 -1 16 -3 30 -5 101 -13 127 -17 143 -21
58 -18 75 -14 101 26 40 61 71 87 128 106 145 48 313 -19 385 -155 15 -29 20
-54 18 -112 -2 -76 -5 -91 -33 -147 -28 -57 -104 -112 -176 -128 -31 -7 -125
-6 -161 2 -99 21 -183 103 -200 196 -7 39 -14 43 -99 53 -22 3 -52 7 -68 10
-15 3 -43 7 -60 10 -18 3 -58 10 -88 15 -30 5 -71 11 -90 14 -19 3 -46 8 -60
11 -14 3 -43 7 -65 9 -22 3 -47 7 -55 10 -8 2 -39 7 -67 10 -51 6 -53 5 -59
-21 -10 -48 -13 -52 -31 -49 -10 2 -49 9 -88 15 -38 6 -88 13 -110 17 -22 3
-53 8 -70 10 -16 2 -57 9 -90 15 -33 7 -71 13 -85 14 -14 2 -38 5 -55 8 -16 3
-50 9 -75 12 -79 11 -114 16 -145 21 -16 3 -43 7 -60 10 -16 2 -41 6 -55 9
-29 6 -119 18 -137 18 -7 0 -13 3 -13 6 0 3 -15 7 -33 7 -17 1 -52 5 -77 9
-25 4 -57 7 -72 8 -16 1 -28 6 -28 10 0 5 -4 5 -10 2 -5 -3 -15 -3 -21 1 -11
7 -57 13 -121 16 -23 1 -28 7 -34 42 -3 23 -11 47 -16 54 -6 6 -7 12 -3 12 5
0 0 9 -10 20 -10 11 -15 20 -12 20 11 0 -66 76 -103 101 -19 13 -37 23 -40 23
-3 -1 -16 3 -30 9 -14 6 -68 11 -120 11 -118 0 -187 -24 -251 -88 -60 -59 -64
-65 -83 -122 -23 -69 -26 -169 -8 -224 21 -63 93 -159 120 -160 6 0 12 -3 12
-8 0 -8 88 -50 116 -55 10 -1 24 -5 29 -9 11 -7 138 -3 165 5 8 2 27 7 43 12
15 4 27 11 27 17 0 5 5 6 10 3 6 -3 10 -1 10 4 0 6 5 11 10 11 16 0 68 61 87
103 19 43 17 42 149 22 106 -17 131 -21 197 -30 23 -3 69 -10 102 -15 33 -5
78 -12 100 -15 22 -4 51 -8 65 -11 54 -9 87 -14 125 -19 22 -2 51 -6 65 -9 14
-2 48 -7 75 -11 28 -3 59 -8 70 -10 11 -3 37 -7 57 -10 21 -3 53 -7 71 -10 18
-3 49 -7 67 -9 19 -2 46 -6 60 -9 14 -4 45 -9 70 -12 25 -4 61 -9 80 -11 48
-7 62 -12 56 -22 -7 -12 -10 -121 -4 -127 7 -7 20 -9 133 -25 50 -7 97 -14
105 -16 8 -1 18 -3 23 -3 4 -1 6 -4 5 -8 -1 -5 24 -61 55 -126 31 -65 57 -122
57 -127 0 -21 28 -30 135 -46 28 -4 93 -16 105 -19 3 0 32 -5 65 -10 33 -5 62
-9 65 -10 3 -1 30 -5 60 -9 30 -5 64 -10 75 -12 11 -2 52 -9 90 -15 39 -6 79
-12 90 -14 11 -2 31 -6 45 -9 41 -8 103 -18 131 -21 42 -4 48 -11 39 -52 -5
-20 -8 -39 -8 -42 0 -3 0 -19 -1 -34 -1 -28 -1 -28 -53 -22 -70 9 -97 13 -133
19 -51 10 -99 18 -130 22 -16 2 -46 6 -65 9 -19 4 -51 8 -70 11 -19 2 -42 6
-50 9 -8 2 -40 7 -70 10 -30 4 -58 9 -61 11 -4 2 -22 6 -40 8 -108 14 -164 23
-164 26 0 1 -18 3 -40 5 -22 2 -49 6 -60 9 -11 2 -23 5 -26 5 -4 1 -10 11 -14
23 -4 13 -8 25 -9 28 -1 3 -8 16 -16 30 -8 14 -15 27 -15 30 -1 3 -19 42 -41
87 -38 80 -40 81 -82 88 -24 4 -51 8 -60 10 -74 13 -102 16 -103 8 -1 -17 -9
-58 -13 -70 -3 -8 -16 -9 -44 -2 -21 4 -54 10 -73 13 -19 2 -45 7 -59 10 -14
3 -38 8 -55 10 -16 3 -39 7 -50 9 -11 2 -42 8 -68 11 -27 4 -59 9 -70 12 -41
8 -82 16 -107 20 -14 2 -63 11 -110 19 -47 8 -105 18 -129 21 -25 3 -51 9 -59
13 -25 14 -48 2 -90 -47 -22 -26 -54 -62 -71 -81 -17 -19 -31 -39 -31 -43 0
-5 -4 -6 -10 -3 -5 3 -10 2 -10 -2 0 -13 -81 -103 -89 -99 -3 2 -31 7 -61 10
-30 4 -66 8 -80 10 -14 2 -52 7 -85 11 -32 4 -66 8 -75 10 -8 1 -42 6 -75 9
-33 4 -73 9 -90 12 -16 2 -48 6 -70 9 -22 3 -60 8 -84 11 -24 3 -57 7 -75 9
-17 2 -47 6 -66 9 -19 3 -56 7 -82 8 -27 2 -48 6 -48 9 0 3 -12 6 -28 6 -60 1
-72 4 -72 17 0 7 -8 31 -17 52 -9 22 -16 43 -15 47 1 4 -5 10 -13 13 -8 4 -15
12 -15 19 0 19 -86 79 -145 101 -79 30 -203 25 -285 -12 -36 -15 -82 -46 -103
-68 -36 -37 -84 -116 -71 -116 4 0 1 -6 -5 -14 -18 -21 -20 -155 -3 -206 61
-185 287 -284 482 -211 67 25 139 90 169 153 21 44 24 47 54 42 18 -3 48 -7
67 -9 61 -7 123 -16 166 -24 22 -4 55 -7 73 -7 17 1 31 -1 31 -4 0 -4 10 -7
23 -7 21 -1 45 -4 137 -18 25 -4 61 -8 80 -10 19 -2 35 -4 35 -5 0 -2 19 -5
110 -15 71 -8 100 -13 100 -15 0 -1 16 -3 35 -5 19 -1 35 -3 35 -4 0 -2 25 -4
55 -7 30 -2 61 -6 68 -9 6 -2 12 -1 12 3 0 4 21 30 46 57 25 28 79 87 120 132
41 45 80 80 87 78 12 -4 67 -13 122 -21 16 -2 37 -6 45 -9 8 -2 35 -7 60 -10
51 -7 64 -9 100 -18 14 -4 43 -9 65 -12 22 -3 47 -7 55 -10 8 -2 33 -6 55 -10
22 -3 89 -15 149 -25 60 -11 111 -20 113 -20 2 0 2 -4 -1 -9 -3 -5 -8 -28 -11
-52 -3 -23 -10 -60 -14 -81 -10 -44 -13 -42 129 -63 19 -3 44 -8 56 -10 28 -6
158 -26 209 -32 22 -2 41 -7 43 -11 2 -7 236 -331 297 -413 19 -25 35 -52 35
-58 0 -9 13 -11 48 -5 197 30 322 -66 338 -260 12 -133 -41 -237 -147 -290
-44 -21 -63 -25 -128 -23 -97 4 -153 30 -214 97 -89 98 -105 230 -42 330 31
49 31 58 2 92 -66 79 -162 211 -159 221 2 7 1 9 -3 5 -4 -4 -34 29 -67 73 -33
44 -64 82 -69 85 -11 7 -42 13 -99 20 -25 2 -56 7 -70 9 -14 2 -38 6 -55 9
-81 13 -110 18 -115 21 -3 2 -11 1 -17 -3 -11 -7 -16 -23 -29 -103 l-6 -37
-47 4 c-25 2 -84 6 -131 9 -47 3 -114 7 -150 10 -36 3 -99 7 -140 10 -41 2
-118 7 -170 10 -52 4 -124 8 -160 10 -36 2 -65 4 -65 5 0 8 -82 3 -98 -6 -12
-6 -44 -24 -72 -39 -27 -16 -79 -43 -115 -62 -36 -19 -78 -42 -95 -52 -16 -9
-64 -36 -105 -58 l-76 -41 -44 24 c-142 75 -268 62 -373 -39 -54 -51 -107
-135 -107 -169 0 -9 -4 -19 -9 -23 -6 -3 -8 -14 -6 -25 2 -11 0 -22 -4 -24 -4
-3 -6 -20 -5 -38 6 -101 9 -118 16 -118 4 0 8 -7 8 -16 0 -18 49 -90 82 -120
34 -30 106 -62 168 -74 136 -26 251 24 359 156 8 9 24 44 36 78 24 69 24 113
0 216 -5 21 -1 27 27 39 58 25 123 56 128 61 3 3 30 16 60 30 30 13 62 30 70
36 8 7 18 13 23 13 4 1 31 13 60 27 61 30 72 30 392 10 50 -3 137 -8 195 -12
58 -3 128 -7 155 -9 28 -2 75 -5 106 -6 l56 -1 -18 -92 c-28 -141 -32 -131 63
-150 l82 -16 36 38 c61 68 146 83 233 42 39 -18 122 -90 104 -90 -4 0 -1 -10
7 -23 15 -23 18 -128 4 -138 -5 -3 -10 -15 -13 -28 -4 -24 -32 -51 -80 -79
-44 -25 -170 -23 -210 3 -55 36 -81 70 -90 117 -3 12 -10 26 -16 32 -9 8 -10
7 -4 -3 6 -10 2 -12 -14 -6 -11 3 -33 9 -48 12 -41 7 -58 11 -60 13 -13 9 -48
2 -49 -10 -1 -8 -2 -25 -2 -36 -1 -15 -10 -23 -27 -26 -14 -3 -25 -2 -25 1 0
3 -12 7 -27 8 -16 1 -48 4 -73 8 -71 9 -113 15 -139 17 -17 2 -28 14 -40 45
-47 119 -175 173 -311 131 -101 -31 -158 -114 -156 -226 1 -88 32 -148 95
-189 117 -76 231 -72 314 10 24 23 46 50 50 60 4 10 11 16 15 13 4 -3 35 -7
68 -11 32 -3 68 -7 79 -9 11 -2 48 -7 83 -11 l63 -7 -7 -42 c-4 -22 -8 -50
-10 -61 -1 -11 -6 -35 -10 -52 l-6 -33 63 6 c35 4 87 8 114 9 28 2 50 4 50 5
0 2 90 7 290 14 184 7 571 7 800 0 94 -3 215 -6 270 -8 55 -1 106 -5 113 -10
7 -4 12 -2 12 4 0 6 5 8 13 3 6 -4 48 -8 92 -10 189 -6 256 -10 261 -16 4 -4
15 -2 25 4 11 5 19 6 19 1 0 -4 33 -8 72 -9 96 -2 220 -11 226 -17 2 -3 13 -1
23 5 11 5 19 6 19 1 0 -5 19 -9 43 -9 44 0 221 -9 392 -19 55 -3 142 -7 192
-8 51 0 93 -3 93 -6 0 -6 199 -10 640 -10 370 -1 531 3 548 14 6 3 13 2 17 -4
4 -6 11 -8 16 -5 5 3 41 8 81 11 66 4 101 7 233 19 22 3 69 7 105 9 36 3 76 7
89 10 13 3 49 8 79 11 30 3 69 8 86 11 67 12 165 26 186 27 8 0 20 3 25 7 6 3
28 8 50 9 22 2 48 7 57 12 10 5 18 8 18 5 0 -2 17 0 38 5 20 5 53 11 72 15 19
3 49 9 65 14 17 4 48 11 70 15 22 4 58 13 80 20 22 8 51 16 65 19 77 15 462
138 509 162 14 7 28 11 33 8 4 -3 8 0 8 5 0 6 3 10 8 9 4 -1 20 4 35 10 16 7
35 12 43 12 8 0 14 5 14 12 0 6 3 9 6 5 4 -3 23 2 43 12 20 11 38 19 41 19 50
6 670 322 710 362 3 3 21 14 40 24 40 22 402 265 410 275 3 4 21 18 40 31 19
13 40 29 46 35 7 5 24 19 40 30 15 11 63 49 107 85 44 36 89 72 101 80 11 8
35 30 53 48 18 19 33 31 33 28 0 -3 10 5 23 17 13 12 72 67 132 122 60 55 125
117 144 139 20 21 43 46 51 55 29 31 187 237 270 351 147 200 450 686 450 719
0 5 3 11 8 13 8 3 30 44 132 248 79 158 170 349 170 360 0 4 6 20 14 36 39 81
101 238 99 246 -2 5 1 8 5 8 5 0 9 6 9 13 2 26 46 137 55 137 5 0 7 4 4 8 -3
5 13 60 35 123 23 63 42 119 43 124 1 6 13 44 26 85 13 41 24 82 24 90 0 8 3
17 7 20 4 4 31 100 44 160 1 3 7 25 14 50 7 25 15 54 17 65 4 21 7 34 23 99 5
22 8 44 5 48 -3 4 -1 8 3 8 5 0 9 8 10 18 2 17 6 41 18 92 6 28 12 64 20 113
3 17 8 43 10 57 11 54 26 148 31 193 1 9 2 18 3 20 1 1 4 20 6 42 2 22 6 65
10 95 4 30 9 80 11 110 3 30 8 89 11 130 18 206 6 721 -21 905 -3 22 -9 60
-12 85 -3 25 -7 56 -10 70 -3 14 -7 39 -10 55 -2 17 -7 41 -11 55 -3 14 -7 34
-9 45 -3 25 -11 60 -20 88 -4 12 -8 34 -9 49 -1 16 -8 34 -14 41 -6 8 -9 16
-6 19 3 3 -1 24 -10 47 -8 23 -14 45 -13 49 1 4 -2 14 -5 22 -3 8 -20 58 -37
110 -60 180 -162 403 -258 565 -48 80 -132 205 -154 229 -10 11 -18 23 -18 27
0 4 -6 14 -12 21 -7 7 -29 33 -49 58 -145 179 -339 358 -541 500 -43 30 -78
57 -78 60 0 3 17 14 38 26 110 61 138 78 152 88 8 7 32 21 53 31 34 18 52 55
27 55 -5 0 -10 6 -10 14 0 20 -27 27 -40 10 -7 -8 -16 -14 -20 -14 -7 0 -113
-60 -135 -77 -16 -12 -65 -40 -112 -64 l-42 -21 -58 35 c-32 20 -65 37 -73 39
-28 6 -52 38 -30 38 6 0 36 16 66 35 30 19 59 35 64 35 6 0 10 4 10 8 0 4 12
13 28 19 15 7 34 17 42 23 24 16 310 183 360 210 25 14 47 26 49 27 7 4 -30
74 -37 71 -4 -2 -20 -10 -37 -18 -16 -8 -36 -20 -43 -27 -7 -7 -18 -13 -23
-13 -6 0 -25 -11 -43 -25 -18 -14 -35 -23 -38 -20 -3 3 -11 -1 -18 -10 -7 -8
-19 -15 -26 -15 -8 0 -14 -4 -14 -10 0 -5 -5 -10 -10 -10 -6 0 -36 -16 -66
-35 -30 -19 -56 -35 -58 -35 -2 0 -56 -31 -120 -70 -65 -38 -120 -70 -123 -70
-4 0 -14 -6 -22 -14 -29 -25 -50 -24 -128 10 -18 8 -48 20 -65 28 -18 8 -41
16 -50 20 -30 9 -21 19 54 61 39 22 111 64 160 93 49 28 93 52 98 52 4 0 10 4
12 8 2 5 15 15 29 23 27 14 160 90 234 134 24 13 40 30 40 41 0 28 -79 31
-120 6z m-9736 -4856 c42 -8 106 -58 127 -97 34 -68 22 -172 -27 -222 -30 -30
-119 -72 -119 -56 0 6 -6 6 -18 0 -10 -6 -24 -6 -32 -1 -8 5 -17 7 -22 4 -13
-8 -81 26 -109 55 -53 56 -61 167 -15 239 27 44 58 67 107 80 35 9 49 9 108
-2z m1121 -281 c32 -10 80 -62 81 -89 8 -104 -34 -163 -119 -172 -87 -8 -145
43 -148 131 -4 108 76 164 186 130z m-1799 -764 c39 -13 87 -59 107 -104 17
-39 15 -122 -5 -160 -24 -47 -72 -85 -118 -93 -53 -9 -118 -6 -126 7 -3 6 -9
10 -13 10 -18 -3 -26 2 -59 32 -54 49 -70 106 -53 182 2 11 5 25 5 30 2 22 58
75 99 93 47 21 106 22 163 3z m451 -931 c44 -23 68 -43 68 -58 0 -6 4 -12 10
-14 5 -1 11 -14 14 -28 2 -14 5 -25 6 -25 1 0 3 -17 4 -37 1 -21 -2 -38 -6
-38 -5 0 -6 -4 -3 -10 9 -14 -20 -64 -55 -94 -57 -48 -151 -55 -230 -18 -154
72 -122 314 45 345 42 7 109 -3 147 -23z m-821 -804 c101 -42 141 -154 90
-258 -18 -39 -32 -52 -74 -72 -116 -54 -251 -3 -291 111 -8 23 -13 43 -11 45
1 1 5 19 8 38 5 44 28 89 57 113 52 44 148 54 221 23z m696 -1080 c38 -13 101
-70 113 -102 5 -12 8 -49 6 -82 -5 -112 -79 -172 -203 -166 -36 1 -69 6 -72
11 -3 4 -13 9 -21 11 -23 4 -88 82 -93 111 -7 38 1 109 17 139 19 37 58 71 92
82 38 12 120 9 161 -4z m1011 -241 c12 -13 22 -31 22 -39 0 -8 4 -17 9 -20 14
-9 -6 -93 -28 -115 -32 -32 -54 -39 -112 -38 -100 3 -153 67 -135 161 6 30 52
84 74 87 31 4 67 11 71 14 8 8 77 -27 99 -50z"/>
<path d="M16047 14063 c-2 -1 -51 -5 -110 -8 -59 -3 -115 -8 -124 -9 -10 -2
-47 -7 -83 -11 -36 -4 -67 -9 -70 -10 -6 -4 -101 -17 -127 -18 -7 0 -13 -3
-13 -6 0 -3 -10 -6 -22 -7 -34 -2 -98 -15 -127 -26 -14 -5 -28 -9 -31 -8 -14
3 -118 -28 -244 -72 -78 -27 -147 -50 -153 -50 -7 -1 -13 -5 -13 -10 0 -4 -6
-8 -13 -8 -7 0 -30 -9 -52 -20 -22 -11 -45 -20 -52 -20 -7 0 -13 -5 -13 -12 0
-6 -2 -9 -6 -6 -3 3 -24 -5 -47 -18 -23 -12 -60 -32 -82 -42 -39 -18 -107 -61
-132 -82 -7 -6 -13 -8 -13 -5 0 3 -10 -3 -22 -15 -12 -11 -25 -20 -29 -20 -6
0 -20 -10 -149 -110 -87 -67 -235 -210 -302 -291 -20 -24 -52 -63 -71 -86 -48
-58 -187 -267 -187 -281 0 -7 -4 -12 -10 -12 -5 0 -10 -4 -10 -9 0 -5 -16 -37
-35 -70 -19 -34 -35 -64 -35 -66 -1 -2 -4 -14 -7 -25 -3 -11 -9 -20 -14 -20
-5 0 -9 -3 -8 -7 2 -16 -14 -53 -22 -53 -5 0 -8 -3 -7 -7 4 -11 -42 -135 -55
-151 -5 -7 -7 -15 -3 -19 3 -3 -1 -17 -9 -30 -9 -13 -13 -23 -9 -23 4 0 1 -7
-6 -15 -7 -8 -10 -15 -6 -15 3 0 1 -12 -5 -27 -11 -30 -55 -192 -64 -238 -52
-268 -60 -346 -60 -620 0 -126 4 -257 8 -290 4 -33 10 -80 13 -105 4 -35 28
-151 59 -285 1 -5 7 -23 13 -38 7 -16 12 -32 12 -37 0 -12 50 -137 85 -215 63
-137 131 -266 176 -332 16 -23 29 -45 29 -48 0 -6 16 -28 60 -82 6 -7 10 -15
10 -18 0 -4 6 -13 13 -20 29 -33 37 -45 37 -55 0 -5 5 -10 10 -10 6 0 14 -8
17 -17 4 -10 16 -28 28 -40 11 -11 27 -30 35 -41 76 -99 367 -397 489 -502 36
-30 77 -66 93 -80 34 -30 29 -26 148 -120 52 -41 97 -78 98 -82 2 -5 10 -8 18
-8 8 0 14 -5 14 -12 0 -6 3 -8 7 -5 3 4 12 -2 20 -13 8 -11 20 -20 28 -20 7 0
15 -4 17 -9 4 -12 293 -211 306 -211 6 0 12 -4 14 -8 2 -4 28 -23 58 -42 30
-18 90 -55 133 -82 43 -26 83 -48 88 -48 5 0 9 -4 9 -9 0 -5 10 -13 22 -17 12
-3 53 -25 92 -48 39 -23 118 -65 175 -94 58 -29 110 -57 118 -63 7 -6 13 -8
13 -4 0 5 8 1 18 -7 9 -8 24 -18 32 -21 8 -4 33 -18 55 -32 22 -14 51 -31 65
-37 21 -11 71 -45 223 -150 11 -7 27 -20 37 -28 11 -8 32 -25 47 -37 15 -12
38 -30 50 -40 12 -10 40 -33 63 -52 76 -64 220 -213 305 -317 17 -20 36 -42
43 -49 6 -8 12 -18 12 -23 0 -6 4 -12 8 -14 11 -4 112 -155 112 -167 0 -5 4
-11 9 -13 12 -4 112 -205 151 -303 18 -44 44 -129 59 -189 24 -96 28 -126 25
-240 -3 -197 -19 -323 -60 -479 -9 -34 -17 -66 -19 -72 -1 -5 -4 -17 -7 -25
-3 -8 -16 -44 -29 -80 -30 -84 -92 -210 -141 -282 -21 -31 -38 -60 -38 -63 0
-3 -11 -17 -25 -31 -14 -14 -25 -29 -25 -33 0 -12 -200 -214 -245 -247 -22
-16 -42 -31 -45 -34 -10 -10 -69 -50 -74 -50 -3 0 -15 -8 -25 -17 -18 -15 -41
-28 -166 -97 -72 -40 -345 -149 -363 -146 -1 0 -28 -7 -60 -16 -31 -10 -64
-19 -72 -20 -8 -2 -27 -6 -42 -9 -16 -3 -38 -7 -50 -10 -13 -2 -34 -7 -48 -10
-14 -4 -36 -7 -50 -8 -14 -1 -31 -6 -37 -10 -7 -5 -13 -5 -13 -1 0 3 -7 1 -15
-6 -38 -31 -1 -36 262 -34 286 3 400 9 588 30 159 17 165 18 230 29 28 5 59 9
70 11 11 1 20 3 20 4 0 1 12 4 28 6 15 2 39 6 55 8 15 2 27 5 27 6 0 1 11 3
25 5 63 8 408 102 425 115 6 5 12 8 15 8 19 -3 313 113 318 124 2 4 12 8 21 8
10 0 30 9 45 21 14 11 26 18 26 15 0 -19 352 199 432 266 15 13 46 39 69 58
55 45 142 125 184 170 75 81 99 109 156 185 33 44 66 87 72 95 46 57 197 332
197 358 0 6 3 12 8 14 4 2 14 23 23 48 9 25 29 77 44 115 14 39 29 81 31 94 3
14 7 28 10 33 3 4 7 18 9 29 3 12 11 45 19 74 9 28 18 69 22 91 3 21 7 41 9
44 2 3 6 26 9 50 4 25 10 59 13 75 4 17 8 46 9 65 1 19 3 35 4 35 3 0 11 111
14 217 2 64 7 122 12 129 5 8 3 10 -7 4 -12 -8 -12 -6 0 8 7 9 10 17 5 17 -5
0 -10 42 -11 93 -2 93 -8 184 -18 247 -3 19 -8 51 -10 70 -2 19 -6 44 -8 55
-3 11 -10 57 -17 103 -8 45 -18 82 -22 82 -5 0 -7 4 -4 9 5 8 -32 172 -50 221
-3 8 -6 17 -6 20 -7 44 -95 270 -154 395 -15 33 -27 63 -26 68 1 4 -2 7 -7 7
-5 0 -11 9 -14 20 -6 25 -125 224 -149 250 -10 10 -18 22 -18 26 0 14 -92 122
-167 197 -74 75 -88 87 -193 163 -52 38 -96 72 -98 76 -2 5 -9 8 -16 8 -7 0
-21 9 -31 20 -10 11 -24 20 -31 20 -7 0 -14 4 -16 8 -1 5 -32 28 -68 52 -36
24 -67 46 -70 49 -3 3 -17 12 -32 20 -16 8 -28 18 -28 23 0 4 -5 8 -11 8 -6 0
-17 6 -24 13 -25 22 -40 32 -67 46 -16 8 -28 18 -28 23 0 4 -4 8 -9 8 -8 0
-201 127 -228 150 -7 5 -16 10 -21 10 -4 0 -18 9 -30 20 -12 12 -22 17 -22 13
0 -4 -4 -3 -8 3 -4 6 -63 48 -132 92 -69 44 -130 86 -137 91 -7 6 -24 16 -38
23 -14 6 -25 15 -25 20 0 4 -5 8 -11 8 -12 0 -103 60 -107 72 -2 4 -9 8 -16 8
-7 0 -30 13 -52 30 -21 16 -45 30 -51 30 -7 0 -13 3 -13 8 0 4 -27 23 -60 42
-33 19 -60 38 -60 43 0 4 -5 7 -11 7 -5 0 -37 18 -69 40 -32 22 -64 40 -69 40
-6 0 -11 4 -11 9 0 5 -13 14 -30 21 -16 7 -30 16 -30 21 0 5 -5 9 -11 9 -6 0
-29 13 -52 28 -23 16 -60 40 -82 54 -22 14 -79 50 -127 82 -48 31 -92 56 -98
56 -5 0 -10 5 -10 10 0 6 -7 10 -15 10 -8 0 -15 5 -15 10 0 6 -6 10 -14 10 -7
0 -25 9 -39 20 -14 12 -36 26 -49 33 -26 14 -111 69 -118 77 -3 3 -17 13 -32
23 -126 80 -367 312 -462 446 -56 79 -162 271 -150 271 4 0 2 6 -3 13 -11 13
-37 93 -47 142 -4 17 -9 41 -12 55 -10 41 -13 266 -4 307 5 21 11 53 15 71 11
64 78 220 128 296 46 72 180 206 235 235 11 6 26 17 34 23 7 7 27 20 43 28 17
8 32 17 35 20 8 10 118 59 145 66 14 3 25 10 25 15 0 5 3 8 8 8 4 -1 9 0 12 1
7 2 31 8 65 15 16 3 32 9 35 13 3 4 10 8 15 9 6 0 62 12 125 26 265 58 454 69
935 53 94 -3 287 -8 430 -12 143 -3 307 -7 365 -9 58 -2 142 -4 188 -5 l83 -2
37 43 c20 24 51 59 69 76 18 18 30 33 28 33 -2 0 7 12 22 28 14 15 51 56 82
91 31 35 65 73 76 85 11 11 37 41 59 66 46 54 160 182 197 222 15 16 51 56 80
90 30 34 64 72 77 85 13 13 21 27 18 32 -5 8 -129 11 -578 14 -137 1 -248 5
-248 8 0 4 -16 3 -35 -1 -19 -4 -35 -4 -35 0 0 4 -18 4 -40 0 -22 -4 -37 -4
-35 1 6 9 -36 6 -53 -5 -7 -4 -12 -4 -12 1 0 4 -96 9 -213 10 -518 5 -796 11
-805 17 -6 4 -13 2 -16 -3 -4 -6 -18 -6 -36 -1 -19 5 -30 5 -30 -1 0 -6 -5 -7
-12 -3 -11 7 -615 14 -621 7z"/>
<path d="M4203 9490 c-37 -17 -73 -51 -73 -69 0 -5 -5 -11 -11 -13 -6 -2 -11
-32 -12 -69 -2 -55 2 -72 23 -102 41 -59 143 -90 210 -63 78 31 122 129 95
209 -7 20 -11 38 -8 40 6 6 -74 73 -89 75 -7 1 -32 3 -55 5 -26 3 -56 -2 -80
-13z"/>
<path d="M13234 8418 c-1 -20 -9 -64 -14 -78 -1 -3 -3 -9 -4 -15 -2 -8 -7 -32
-22 -97 -1 -5 -2 -9 -4 -10 -1 -2 -3 -10 -5 -18 -17 -83 -86 -298 -120 -375
-26 -59 -75 -160 -87 -180 -7 -11 -26 -42 -42 -70 -17 -27 -33 -52 -36 -55 -3
-3 -18 -23 -34 -44 -105 -140 -288 -267 -451 -313 -95 -26 -123 -33 -158 -38
-23 -3 -49 -8 -57 -10 -32 -8 -180 -21 -330 -30 -125 -7 -210 -13 -304 -21
l-69 -6 85 -82 c47 -44 152 -144 234 -221 81 -77 180 -170 218 -207 39 -37 98
-93 132 -125 34 -32 100 -95 148 -141 l87 -82 -7 -78 c-4 -42 -8 -88 -9 -102
-2 -14 -6 -54 -9 -90 -3 -36 -8 -85 -11 -110 -3 -25 -7 -67 -9 -95 -3 -27 -8
-79 -11 -115 -4 -36 -9 -83 -10 -105 -2 -22 -7 -67 -10 -100 -4 -33 -8 -78
-10 -100 -2 -22 -6 -68 -10 -103 -3 -35 -8 -89 -10 -120 -2 -31 -5 -57 -5 -57
-1 0 -3 -15 -5 -32 -2 -18 0 -33 5 -33 5 0 36 23 69 50 33 28 63 50 66 50 4 0
12 6 20 13 7 7 46 36 86 63 41 27 76 52 77 57 2 4 7 7 12 7 5 0 42 20 83 44
140 83 358 174 452 190 17 2 30 5 30 6 0 1 32 8 70 15 93 16 405 11 405 -8 0
-4 4 -6 8 -3 8 4 83 -13 186 -44 68 -21 236 -95 381 -170 331 -171 446 -230
450 -230 2 0 -2 11 -8 25 -7 14 -15 25 -19 25 -5 0 -8 6 -8 13 0 7 -8 22 -17
33 -10 10 -29 39 -42 64 -13 25 -31 53 -39 63 -8 9 -11 17 -6 17 5 0 4 4 -1 8
-23 16 -168 321 -175 367 -1 3 -7 20 -16 40 -8 19 -14 37 -14 40 0 3 0 6 -1 8
-46 151 -67 370 -47 492 13 81 13 78 21 93 5 6 6 12 3 12 -6 0 33 109 61 168
18 38 99 169 117 188 6 7 26 30 45 53 60 75 177 189 339 331 35 30 93 83 130
117 37 34 70 63 75 63 4 0 7 6 7 13 0 8 -15 14 -37 16 -21 1 -56 4 -78 6 -22
2 -71 7 -110 10 -38 3 -90 8 -115 10 -25 3 -65 6 -90 9 -115 10 -188 17 -225
21 -22 3 -66 7 -98 10 -32 2 -77 7 -100 9 -23 3 -71 8 -107 11 -36 3 -87 8
-115 10 -27 3 -79 8 -115 11 -36 3 -68 8 -71 12 -4 4 -24 39 -44 77 -21 39
-50 93 -65 120 -39 70 -119 220 -149 280 -14 28 -28 52 -31 55 -3 3 -17 28
-31 56 -54 105 -132 249 -142 262 -5 6 -6 12 -1 12 5 0 5 4 -1 8 -13 9 -36 49
-77 134 -34 70 -52 85 -54 46z"/>
<path d="M4019 7595 c-2 -2 -20 -4 -39 -6 -47 -4 -114 -50 -134 -93 -44 -93
-22 -198 52 -249 72 -50 184 -48 246 5 47 40 62 71 65 139 4 91 -51 169 -134
189 -5 1 -20 6 -31 11 -12 4 -24 6 -25 4z"/>
<path d="M3685 5796 c-67 -24 -112 -97 -110 -176 3 -78 40 -135 105 -159 14
-5 34 -13 45 -17 11 -4 23 -7 27 -6 3 1 20 4 37 7 57 10 111 41 111 64 0 6 4
11 8 11 28 0 37 146 11 189 -45 77 -151 116 -234 87z"/>
<path d="M3054 5730 c-23 -9 -70 -68 -61 -77 3 -3 2 -15 -3 -28 -10 -27 16
-75 55 -101 27 -18 105 -28 105 -13 0 5 8 9 18 9 40 0 70 101 45 152 -26 53
-101 80 -159 58z"/>
</g>
</svg>
